<svg width="24" height="24" viewBox="0 0 24 24" fill="none" xmlns="http://www.w3.org/2000/svg">
<path d="M15.6378 14.9615C16.0308 15.0925 16.4555 14.8801 16.5865 14.4872C16.7175 14.0942 16.5051 13.6695 16.1122 13.5385L15.6378 14.9615ZM12.5 13.125H11.75C11.75 13.4478 11.9566 13.7344 12.2628 13.8365L12.5 13.125ZM13.25 8.42087C13.25 8.00666 12.9142 7.67087 12.5 7.67087C12.0858 7.67087 11.75 8.00666 11.75 8.42087H13.25ZM16.1122 13.5385L12.7372 12.4135L12.2628 13.8365L15.6378 14.9615L16.1122 13.5385ZM13.25 13.125V8.42087H11.75V13.125H13.25ZM20.75 12C20.75 16.5563 17.0563 20.25 12.5 20.25V21.75C17.8848 21.75 22.25 17.3848 22.25 12H20.75ZM12.5 20.25C7.94365 20.25 4.25 16.5563 4.25 12H2.75C2.75 17.3848 7.11522 21.75 12.5 21.75V20.25ZM4.25 12C4.25 7.44365 7.94365 3.75 12.5 3.75V2.25C7.11522 2.25 2.75 6.61522 2.75 12H4.25ZM12.5 3.75C17.0563 3.75 20.75 7.44365 20.75 12H22.25C22.25 6.61522 17.8848 2.25 12.5 2.25V3.75Z" fill="black"/>
</svg>
