<svg width="200" height="200" viewBox="0 0 200 200" fill="none" xmlns="http://www.w3.org/2000/svg">
<rect width="200" height="200" rx="50" fill="#FF0075"/>
<path d="M83.9056 120.261C90.2599 105.906 93.3214 84.5913 92.6628 72.7548C92.0933 64.3091 89.0674 54.128 81.218 48.895C76.7326 45.8069 71.5085 44.7211 66.2756 45.0593C55.3647 45.5933 47.6932 55.0446 45.406 64.5227C41.8106 79.3672 46.4295 94.3541 56.3258 105.176C58.3905 107.437 60.6332 109.386 63.0183 111.068C56.931 125.716 45.7264 124.88 39.4611 123.144L33 145.295C55.1244 153.741 76.0206 137.713 83.9056 120.261ZM62.9115 83.2652C62.511 77.1512 62.5911 73.1642 64.1663 69.6133C65.7416 66.0534 68.4915 66.0356 69.8354 69.2484C71.1614 72.4166 71.0991 77.1957 70.7164 81.5298C70.1291 86.745 69.1857 92.2182 67.7707 97.6025C65.0118 93.5086 63.2942 88.6762 62.9115 83.2652Z" fill="white"/>
<path d="M90.6249 138.923C98.6523 147.12 109.67 152.059 120.732 153.643C135.345 155.717 150.777 153.519 163.254 144.432L149.327 126.019C140.881 132.667 127.469 133.219 117.279 130.086C112.936 128.591 108.228 125.761 105.318 122.21C120.973 122.673 138.763 119.282 153.162 107.428C162.729 99.5427 169.271 87.0833 167.072 73.8941C164.83 62.0132 155.503 52.8733 144.209 49.6517C119.424 43.3329 95.0747 63.3303 85.4988 84.7516C82.2237 91.6221 78.6817 105.488 79.8119 115.357C80.7998 123.936 84.6889 132.925 90.6249 138.932V138.923ZM109.421 87.9555C115.143 79.4742 125.734 70.8861 135.915 71.3755C139.092 71.687 141.468 72.5058 143.257 75.1579C146.879 80.5243 142.572 87.1278 138.273 91.7289C135.025 95.0929 130.887 97.7272 126.811 100.201C118.516 105.238 109.741 107.588 101.687 108.371C102.266 101.18 105.612 93.7224 109.421 87.9555Z" fill="white"/>
</svg>
