<svg width="575" height="148" viewBox="0 0 575 148" fill="none" xmlns="http://www.w3.org/2000/svg">
<path d="M560.033 37.1816H523.79V60.3306H560.033V37.1816Z" fill="#FF0075"/>
<path d="M150.891 145.248C140.193 145.248 131.555 140.6 126.506 132.112C120.627 122.228 117.927 103.398 134.144 68.3303L146.162 41.5708L171.857 51.1356C151.701 86.7617 142.393 111.965 148.002 119.386C148.242 119.695 148.561 120.353 151.051 120.313C151.281 120.313 173.957 119.535 186.594 79.1916L210.45 86.632C192.773 143.063 155.57 145.188 151.391 145.248C151.221 145.248 151.051 145.248 150.881 145.248H150.891Z" fill="#FF0075"/>
<path d="M214.469 64.0812C210.26 79.311 207.54 98.8595 214.699 113.052C218.468 120.463 226.257 122.477 233.865 120.313C237.994 119.126 241.464 116.553 244.533 113.252C255.541 100.764 260.56 82.1037 262.4 65.6869C262.84 60.8297 262.9 55.4739 261.41 51.9232C259.92 48.3726 256.811 48.3427 255.041 52.3222C253.271 56.3017 253.181 60.7699 253.631 67.6218C254.801 84.2081 267.199 95.9073 283.646 99.1487C294.584 101.513 319.349 101.832 339.355 86.3026C343.584 83.0113 347.863 79.5504 351.053 75.3814C355.252 69.7163 359.201 61.8072 354.462 56.2917C352.113 53.5689 349.363 52.9705 345.774 53.0303C334.346 53.8083 323.648 64.7295 318.359 74.9126C313.04 85.4249 309.391 100.166 315.659 110.409C318.819 115.675 326.187 119.385 332.606 120.792C344.384 122.956 359.281 120.622 367.84 112.115L385.766 130.815C373.019 142.544 356.082 146.993 339.505 146.574C326.957 146.235 314.03 142.175 304.012 134.087C285.905 119.585 284.306 94.7902 291.264 74.4239C299.173 49.35 323.758 23.937 352.222 27.7669C365.25 29.8913 376.838 38.8577 380.887 51.7836C385.056 66.1856 379.377 80.8968 369.719 90.9105C344.604 116.952 304.902 116.134 285.535 111.257C271.138 107.636 256.641 103.527 246.253 92.1671C235.135 80.0291 229.936 63.2434 233.985 46.6072C236.555 35.9852 245.173 25.3931 257.431 24.7947C263.31 24.4257 269.178 25.6325 274.217 29.0934C283.036 34.9579 286.435 46.3679 287.075 55.8429C288.445 80.4281 280.506 111.965 263.669 130.646C251.132 144.878 231.586 151.012 213.299 144.31C195.203 137.717 186.784 118.847 185.554 101.004C184.425 85.7341 187.024 71.0129 191.923 56.8303L214.469 64.0612V64.0812Z" fill="#FF0075"/>
<path d="M406.422 97.0041C418.73 97.1438 432.357 93.2739 443.255 84.6168C453.973 76.1092 462.322 62.7145 455.153 55.7927C452.833 53.5387 449.754 52.2022 446.465 52.3119C439.976 52.5214 434.187 55.9224 428.948 60.5602C417.98 70.4441 411.111 86.7312 412.611 101.293C413.761 112.114 421.829 118.079 432.057 120.632C444.125 123.155 459.172 120.791 468.02 112.124L485.947 130.825C482.828 133.707 479.398 136.201 475.809 138.225C460.522 146.593 442.495 148.648 425.699 144.668C384.426 133.827 379.497 93.3338 398.234 60.2011C406.402 46.587 417.65 35.586 433.257 30.2501C445.285 26.1409 459.512 27.8165 469.49 36.2243C487.047 50.3072 484.327 73.2368 471.15 88.9154C452.433 111.187 426.798 113.58 412.401 112.174L406.432 97.0141L406.422 97.0041Z" fill="#FF0075"/>
<path d="M64.1577 146.554C40.1123 146.554 14.6072 132.82 0 119.196L17.0667 100.974C28.0746 111.227 44.9714 120.303 63.9078 122.597C72.5861 123.644 83.9939 122.028 87.3633 115.655C89.3029 111.985 88.4031 108.384 85.6636 106.669C81.6244 104.156 74.8857 102.53 69.4767 101.223C67.3771 100.715 65.4075 100.246 63.5278 99.7173C62.688 99.4779 61.8082 99.2385 60.8884 98.9992C48.4907 95.638 22.6757 88.6464 22.3157 63.6324C22.1858 54.5064 25.5551 46.1983 32.0839 39.5957C41.572 29.9911 54.9795 26.5701 64.3577 26.5701C94.212 26.5701 118.107 48.6319 119.107 49.5694L102.001 67.7515C101.851 67.6219 84.1839 51.5044 64.3477 51.5044C59.9085 51.5044 54.0997 52.0529 50.4703 55.7332C48.6507 57.5684 47.6109 59.7526 48.0508 62.7248C48.8106 67.9211 54.4496 71.4219 67.4471 74.9426C68.4369 75.2119 69.3867 75.4712 70.2866 75.7205C71.7163 76.1195 73.4759 76.5483 75.3356 76.9972C82.5042 78.7226 91.4325 80.8769 98.9011 85.5346C109.859 92.3666 114.818 102.979 112.868 115.426C109.849 134.625 91.1826 146.564 64.1577 146.564V146.554Z" fill="#FF0075"/>
<path d="M536.937 4.68765C531.478 37.9001 525.28 72.2695 518.171 105.173C516.751 110.818 515.241 115.516 520.281 119.914C531.578 128.9 549.315 124.043 558.603 113.561L575 127.983C568.691 135.363 560.323 141.467 550.745 144.868C527.359 153.735 494.955 143.681 491.056 115.895C489.976 108.554 491.966 101.223 493.126 94.0721C498.935 63.2333 505.113 30.739 511.692 0L536.927 4.70759L536.937 4.68765Z" fill="#FF0075"/>
</svg>
