<svg width="24" height="24" viewBox="0 0 24 24" fill="none" xmlns="http://www.w3.org/2000/svg">
<path d="M6.19735 20.9343L15.2559 12.4086L19.5188 16.6714M6.19735 20.9343H16.8545C18.6202 20.9343 20.0516 19.5029 20.0516 17.7371V12.4086M6.19735 20.9343C4.43162 20.9343 3.00021 19.5029 3.00021 17.7371V7.08001C3.00021 5.31427 4.43162 3.88287 6.19735 3.88287H13.1245M18.9859 9.02859L18.9859 6.01429M18.9859 6.01429L18.9859 3M18.9859 6.01429L15.9716 6.01429M18.9859 6.01429L22.0002 6.01429M9.3945 8.67858C9.3945 9.56144 8.67879 10.2771 7.79593 10.2771C6.91306 10.2771 6.19735 9.56144 6.19735 8.67858C6.19735 7.79571 6.91306 7.08001 7.79593 7.08001C8.67879 7.08001 9.3945 7.79571 9.3945 8.67858Z" stroke="black" stroke-width="1.5" stroke-linecap="round" stroke-linejoin="round"/>
</svg>
