<svg width="802" height="200" viewBox="0 0 802 200" fill="none" xmlns="http://www.w3.org/2000/svg">
<path d="M787.033 63.1816H750.79V86.3306H787.033V63.1816Z" fill="#FF0075"/>
<path d="M377.891 171.248C367.193 171.248 358.555 166.6 353.506 158.112C347.627 148.228 344.928 129.398 361.144 94.3303L373.162 67.5708L398.857 77.1356C378.701 112.762 369.393 137.965 375.002 145.386C375.242 145.695 375.562 146.353 378.051 146.313C378.281 146.313 400.957 145.535 413.594 105.192L437.45 112.632C419.773 169.063 382.57 171.188 378.391 171.248C378.221 171.248 378.051 171.248 377.881 171.248H377.891Z" fill="#FF0075"/>
<path d="M441.469 90.0812C437.26 105.311 434.54 124.86 441.699 139.052C445.468 146.463 453.257 148.477 460.865 146.313C464.995 145.126 468.464 142.553 471.533 139.252C482.541 126.764 487.56 108.104 489.4 91.6869C489.84 86.8297 489.9 81.4739 488.41 77.9232C486.92 74.3726 483.811 74.3427 482.041 78.3222C480.272 82.3017 480.182 86.7699 480.632 93.6218C481.801 110.208 494.199 121.907 510.646 125.149C521.584 127.513 546.349 127.832 566.355 112.303C570.584 109.011 574.864 105.55 578.053 101.381C582.252 95.7163 586.201 87.8072 581.462 82.2917C579.113 79.5689 576.363 78.9705 572.774 79.0303C561.346 79.8083 550.648 90.7295 545.359 100.913C540.04 111.425 536.391 126.166 542.66 136.409C545.819 141.675 553.188 145.385 559.606 146.792C571.384 148.956 586.281 146.622 594.84 138.115L612.766 156.815C600.019 168.544 583.082 172.993 566.505 172.574C553.958 172.235 541.03 168.175 531.012 160.087C512.905 145.585 511.306 120.79 518.264 100.424C526.173 75.35 550.758 49.937 579.223 53.7669C592.25 55.8913 603.838 64.8577 607.887 77.7836C612.057 92.1856 606.378 106.897 596.719 116.91C571.604 142.952 531.902 142.134 512.536 137.257C498.138 133.636 483.641 129.527 473.253 118.167C462.135 106.029 456.936 89.2434 460.985 72.6072C463.555 61.9852 472.173 51.3931 484.431 50.7947C490.31 50.4257 496.179 51.6325 501.218 55.0934C510.036 60.9579 513.435 72.3679 514.075 81.8429C515.445 106.428 507.506 137.965 490.67 156.646C478.132 170.878 458.586 177.012 440.299 170.31C422.203 163.717 413.784 144.847 412.555 127.004C411.425 111.734 414.024 97.0129 418.923 82.8303L441.469 90.0612V90.0812Z" fill="#FF0075"/>
<path d="M633.422 123.004C645.73 123.144 659.357 119.274 670.255 110.617C680.973 102.109 689.322 88.7145 682.153 81.7927C679.833 79.5387 676.754 78.2022 673.465 78.3119C666.976 78.5214 661.187 81.9224 655.948 86.5602C644.98 96.4441 638.111 112.731 639.611 127.293C640.761 138.114 648.829 144.079 659.057 146.632C671.125 149.155 686.172 146.791 695.02 138.124L712.947 156.825C709.828 159.707 706.398 162.201 702.809 164.225C687.522 172.593 669.495 174.648 652.699 170.668C611.426 159.827 606.497 119.334 625.234 86.2011C633.402 72.587 644.65 61.586 660.257 56.2501C672.285 52.1409 686.512 53.8165 696.49 62.2243C714.047 76.3072 711.327 99.2368 698.15 114.915C679.433 137.187 653.798 139.58 639.401 138.174L633.432 123.014L633.422 123.004Z" fill="#FF0075"/>
<path d="M291.158 172.554C267.112 172.554 241.607 158.82 227 145.196L244.067 126.974C255.075 137.227 271.971 146.303 290.908 148.597C299.586 149.644 310.994 148.028 314.363 141.655C316.303 137.985 315.403 134.384 312.664 132.669C308.624 130.156 301.886 128.53 296.477 127.223C294.377 126.715 292.407 126.246 290.528 125.717C289.688 125.478 288.808 125.239 287.888 124.999C275.491 121.638 249.676 114.646 249.316 89.6324C249.186 80.5064 252.555 72.1983 259.084 65.5957C268.572 55.9911 281.979 52.5701 291.358 52.5701C321.212 52.5701 345.107 74.6319 346.107 75.5694L329.001 93.7515C328.851 93.6219 311.184 77.5044 291.348 77.5044C286.909 77.5044 281.1 78.0529 277.47 81.7332C275.651 83.5684 274.611 85.7526 275.051 88.7248C275.811 93.9211 281.45 97.4219 294.447 100.943C295.437 101.212 296.387 101.471 297.287 101.721C298.716 102.119 300.476 102.548 302.336 102.997C309.504 104.723 318.433 106.877 325.901 111.535C336.859 118.367 341.818 128.979 339.868 141.426C336.849 160.625 318.183 172.564 291.158 172.564V172.554Z" fill="#FF0075"/>
<path d="M763.937 30.6876C758.478 63.9001 752.28 98.2695 745.171 131.173C743.751 136.818 742.241 141.516 747.281 145.914C758.578 154.9 776.315 150.043 785.603 139.561L802 153.983C795.691 161.363 787.323 167.467 777.745 170.868C754.359 179.735 721.955 169.681 718.056 141.895C716.976 134.554 718.966 127.223 720.126 120.072C725.935 89.2333 732.113 56.739 738.692 26L763.927 30.7076L763.937 30.6876Z" fill="#FF0075"/>
<path d="M139.662 0H60.3381C27.0143 0 0 27.0143 0 60.3381V139.662C0 172.986 27.0143 200 60.3381 200H139.662C172.986 200 200 172.986 200 139.662V60.3381C200 27.0143 172.986 0 139.662 0Z" fill="#FF0075"/>
<path d="M83.9056 120.261C90.2599 105.906 93.3214 84.5913 92.6628 72.7548C92.0933 64.3091 89.0674 54.128 81.218 48.895C76.7326 45.8069 71.5085 44.7211 66.2756 45.0593C55.3647 45.5933 47.6932 55.0446 45.406 64.5227C41.8106 79.3672 46.4295 94.3541 56.3258 105.176C58.3905 107.437 60.6332 109.386 63.0183 111.068C56.931 125.716 45.7264 124.88 39.4611 123.144L33 145.295C55.1244 153.741 76.0206 137.713 83.9056 120.261ZM62.9115 83.2652C62.511 77.1512 62.5911 73.1642 64.1663 69.6133C65.7416 66.0534 68.4915 66.0356 69.8354 69.2484C71.1614 72.4166 71.0991 77.1957 70.7164 81.5298C70.1291 86.745 69.1857 92.2182 67.7707 97.6025C65.0118 93.5086 63.2942 88.6762 62.9115 83.2652Z" fill="white"/>
<path d="M90.6249 138.923C98.6523 147.12 109.67 152.059 120.732 153.643C135.345 155.717 150.777 153.519 163.254 144.432L149.327 126.019C140.881 132.667 127.469 133.219 117.279 130.086C112.936 128.591 108.228 125.761 105.318 122.21C120.973 122.673 138.763 119.282 153.162 107.428C162.729 99.5427 169.271 87.0833 167.072 73.8941C164.83 62.0132 155.503 52.8733 144.209 49.6517C119.424 43.3329 95.0747 63.3303 85.4988 84.7516C82.2237 91.6221 78.6817 105.488 79.8119 115.357C80.7998 123.936 84.6889 132.925 90.6249 138.932V138.923ZM109.421 87.9555C115.143 79.4742 125.734 70.8861 135.915 71.3755C139.092 71.687 141.468 72.5058 143.257 75.1579C146.879 80.5243 142.572 87.1278 138.273 91.7289C135.025 95.0929 130.887 97.7272 126.811 100.201C118.516 105.238 109.741 107.588 101.687 108.371C102.266 101.18 105.612 93.7224 109.421 87.9555Z" fill="white"/>
</svg>
