<svg width="19" height="19" viewBox="0 0 19 19" fill="none" xmlns="http://www.w3.org/2000/svg">
<path d="M3.06342 14.454C2.77053 14.7469 2.77053 15.2218 3.06342 15.5147C3.35631 15.8076 3.83119 15.8076 4.12408 15.5147L3.06342 14.454ZM6.96875 11.6094L7.49908 11.079C7.20619 10.7862 6.73131 10.7862 6.43842 11.079L6.96875 11.6094ZM8.65625 13.2969L8.12592 13.8272C8.41881 14.1201 8.89369 14.1201 9.18658 13.8272L8.65625 13.2969ZM12.4531 9.5L12.9835 8.96967C12.6906 8.67678 12.2157 8.67678 11.9228 8.96967L12.4531 9.5ZM15.2978 13.4053C15.5907 13.6982 16.0656 13.6982 16.3585 13.4053C16.6513 13.1124 16.6513 12.6376 16.3585 12.3447L15.2978 13.4053ZM4.12408 15.5147L7.49908 12.1397L6.43842 11.079L3.06342 14.454L4.12408 15.5147ZM6.43842 12.1397L8.12592 13.8272L9.18658 12.7665L7.49908 11.079L6.43842 12.1397ZM9.18658 13.8272L12.9835 10.0303L11.9228 8.96967L8.12592 12.7665L9.18658 13.8272ZM11.9228 10.0303L15.2978 13.4053L16.3585 12.3447L12.9835 8.96967L11.9228 10.0303ZM5.28125 3.5H13.7188V2H5.28125V3.5ZM15.5 5.28125V13.7188H17V5.28125H15.5ZM13.7188 15.5H5.28125V17H13.7188V15.5ZM3.5 13.7188V5.28125H2V13.7188H3.5ZM5.28125 15.5C4.29749 15.5 3.5 14.7025 3.5 13.7188H2C2 15.5309 3.46907 17 5.28125 17V15.5ZM15.5 13.7188C15.5 14.7025 14.7025 15.5 13.7188 15.5V17C15.5309 17 17 15.5309 17 13.7188H15.5ZM13.7188 3.5C14.7025 3.5 15.5 4.29749 15.5 5.28125H17C17 3.46907 15.5309 2 13.7188 2V3.5ZM5.28125 2C3.46907 2 2 3.46907 2 5.28125H3.5C3.5 4.29749 4.29749 3.5 5.28125 3.5V2ZM7.0625 6.54688C7.0625 6.83165 6.83165 7.0625 6.54688 7.0625V8.5625C7.66007 8.5625 8.5625 7.66007 8.5625 6.54688H7.0625ZM6.54688 7.0625C6.2621 7.0625 6.03125 6.83165 6.03125 6.54688H4.53125C4.53125 7.66007 5.43368 8.5625 6.54688 8.5625V7.0625ZM6.03125 6.54688C6.03125 6.2621 6.2621 6.03125 6.54688 6.03125V4.53125C5.43368 4.53125 4.53125 5.43368 4.53125 6.54688H6.03125ZM6.54688 6.03125C6.83165 6.03125 7.0625 6.2621 7.0625 6.54688H8.5625C8.5625 5.43368 7.66007 4.53125 6.54688 4.53125V6.03125Z" fill="white"/>
</svg>
