<svg width="54" height="54" viewBox="0 0 54 54" fill="none" xmlns="http://www.w3.org/2000/svg">
<path d="M8.21092 41.8442C7.62513 42.43 7.62513 43.3798 8.21092 43.9656C8.79671 44.5514 9.74645 44.5514 10.3322 43.9656L8.21092 41.8442ZM18.5542 33.6223L19.6148 32.5616C19.3335 32.2803 18.952 32.1223 18.5542 32.1223C18.1564 32.1223 17.7748 32.2803 17.4935 32.5616L18.5542 33.6223ZM23.1955 38.2636L22.1348 39.3243C22.4161 39.6056 22.7977 39.7636 23.1955 39.7636C23.5933 39.7636 23.9748 39.6056 24.2562 39.3243L23.1955 38.2636ZM33.6384 27.8207L34.6991 26.76C34.4178 26.4787 34.0363 26.3207 33.6384 26.3207C33.2406 26.3207 32.8591 26.4787 32.5778 26.76L33.6384 27.8207ZM41.8604 38.1639C42.4462 38.7497 43.3959 38.7497 43.9817 38.1639C44.5675 37.5782 44.5675 36.6284 43.9817 36.0426L41.8604 38.1639ZM10.3322 43.9656L19.6148 34.683L17.4935 32.5616L8.21092 41.8442L10.3322 43.9656ZM17.4935 34.683L22.1348 39.3243L24.2562 37.2029L19.6148 32.5616L17.4935 34.683ZM24.2562 39.3243L34.6991 28.8813L32.5778 26.76L22.1348 37.2029L24.2562 39.3243ZM32.5778 28.8813L41.8604 38.1639L43.9817 36.0426L34.6991 26.76L32.5778 28.8813ZM13.9129 10.7554H37.1194V7.75545H13.9129V10.7554ZM42.5814 16.2174V39.4239H45.5814V16.2174H42.5814ZM37.1194 44.8859H13.9129V47.8859H37.1194V44.8859ZM8.45093 39.4239V16.2174H5.45093V39.4239H8.45093ZM13.9129 44.8859C10.8963 44.8859 8.45093 42.4405 8.45093 39.4239H5.45093C5.45093 44.0973 9.23947 47.8859 13.9129 47.8859V44.8859ZM42.5814 39.4239C42.5814 42.4405 40.136 44.8859 37.1194 44.8859V47.8859C41.7928 47.8859 45.5814 44.0973 45.5814 39.4239H42.5814ZM37.1194 10.7554C40.136 10.7554 42.5814 13.2008 42.5814 16.2174H45.5814C45.5814 11.544 41.7928 7.75545 37.1194 7.75545V10.7554ZM13.9129 7.75545C9.23947 7.75545 5.45093 11.544 5.45093 16.2174H8.45093C8.45093 13.2008 10.8963 10.7554 13.9129 10.7554V7.75545ZM19.3748 19.6984C19.3748 20.7924 18.4879 21.6794 17.3939 21.6794V24.6794C20.1448 24.6794 22.3748 22.4493 22.3748 19.6984H19.3748ZM17.3939 21.6794C16.2998 21.6794 15.4129 20.7924 15.4129 19.6984H12.4129C12.4129 22.4493 14.6429 24.6794 17.3939 24.6794V21.6794ZM15.4129 19.6984C15.4129 18.6043 16.2998 17.7174 17.3939 17.7174V14.7174C14.6429 14.7174 12.4129 16.9475 12.4129 19.6984H15.4129ZM17.3939 17.7174C18.4879 17.7174 19.3748 18.6043 19.3748 19.6984H22.3748C22.3748 16.9475 20.1448 14.7174 17.3939 14.7174V17.7174Z" fill="#CAC6C8"/>
<ellipse cx="44.413" cy="9.58696" rx="9.28261" ry="9.28261" fill="#BDB8BA"/>
<rect x="43.4849" y="4.94586" width="1.85652" height="9.28261" rx="0.928261" fill="#F8F8F8"/>
<rect x="39.7717" y="10.5155" width="1.85652" height="9.28261" rx="0.928261" transform="rotate(-90 39.7717 10.5155)" fill="#F8F8F8"/>
</svg>
