<svg width="25" height="38" viewBox="0 0 25 38" fill="none" xmlns="http://www.w3.org/2000/svg">
<path d="M6 15.042C6 14.432 6.49449 13.9375 7.10448 13.9375H17.8955C18.5055 13.9375 19 14.432 19 15.042V35.9469C19 36.814 18.0467 37.3429 17.311 36.8841L13.0845 34.248C12.7268 34.0249 12.2732 34.0249 11.9155 34.248L7.68898 36.8841C6.9533 37.3429 6 36.814 6 35.9469V15.042Z" fill="#F57C75"/>
<path d="M12.5 25.0625C19.4036 25.0625 25 19.4661 25 12.5625C25 5.65893 19.4036 0.0625 12.5 0.0625C5.59645 0.0625 0 5.65893 0 12.5625C0 19.4661 5.59645 25.0625 12.5 25.0625Z" fill="#F2C179"/>
<path d="M14.4959 12.8265C15.4339 13.3725 16.0359 14.3665 16.0359 15.2345C16.0359 16.9705 14.5799 18.2025 12.4939 18.2025C10.4219 18.2025 8.97993 16.9145 8.97993 15.1085H10.6599C10.6599 16.0465 11.4159 16.7185 12.4939 16.7185C13.6139 16.7185 14.4119 16.0465 14.4119 15.1085C14.4119 14.1845 13.6279 13.5265 12.5219 13.5265H11.8079V12.1405H12.5499C13.5579 12.1405 14.2579 11.5525 14.2579 10.7125C14.2579 9.8865 13.5719 9.2985 12.5919 9.2985C11.6399 9.2985 10.9679 9.8865 10.9679 10.7265H9.28793C9.28793 9.0185 10.6459 7.8145 12.5919 7.8145C14.5099 7.8145 15.8679 8.9625 15.8679 10.6005C15.8679 11.3845 15.3359 12.3085 14.4959 12.8265Z" fill="black"/>
</svg>
