<svg width="240" height="240" viewBox="0 0 240 240" fill="none" xmlns="http://www.w3.org/2000/svg">
<g filter="url(#filter0_b_1094_29288)">
<rect width="240" height="240" rx="12" fill="#F8F8F8"/>
</g>
<path d="M105.211 135.844C104.625 136.43 104.625 137.38 105.211 137.966C105.797 138.551 106.747 138.551 107.332 137.966L105.211 135.844ZM115.554 127.622L116.615 126.562C116.334 126.28 115.952 126.122 115.554 126.122C115.157 126.122 114.775 126.28 114.494 126.562L115.554 127.622ZM120.196 132.264L119.135 133.324C119.416 133.606 119.798 133.764 120.196 133.764C120.594 133.764 120.975 133.606 121.256 133.324L120.196 132.264ZM130.639 121.821L131.699 120.76C131.418 120.479 131.036 120.321 130.639 120.321C130.241 120.321 129.859 120.479 129.578 120.76L130.639 121.821ZM138.861 132.164C139.446 132.75 140.396 132.75 140.982 132.164C141.568 131.578 141.568 130.628 140.982 130.043L138.861 132.164ZM107.332 137.966L116.615 128.683L114.494 126.562L105.211 135.844L107.332 137.966ZM114.494 128.683L119.135 133.324L121.256 131.203L116.615 126.562L114.494 128.683ZM121.256 133.324L131.699 122.881L129.578 120.76L119.135 131.203L121.256 133.324ZM129.578 122.881L138.861 132.164L140.982 130.043L131.699 120.76L129.578 122.881ZM110.913 104.755H134.12V101.755H110.913V104.755ZM139.582 110.217V133.424H142.582V110.217H139.582ZM134.12 138.886H110.913V141.886H134.12V138.886ZM105.451 133.424V110.217H102.451V133.424H105.451ZM110.913 138.886C107.897 138.886 105.451 136.44 105.451 133.424H102.451C102.451 138.097 106.24 141.886 110.913 141.886V138.886ZM139.582 133.424C139.582 136.44 137.136 138.886 134.12 138.886V141.886C138.793 141.886 142.582 138.097 142.582 133.424H139.582ZM134.12 104.755C137.136 104.755 139.582 107.201 139.582 110.217H142.582C142.582 105.544 138.793 101.755 134.12 101.755V104.755ZM110.913 101.755C106.24 101.755 102.451 105.544 102.451 110.217H105.451C105.451 107.201 107.897 104.755 110.913 104.755V101.755ZM116.375 113.698C116.375 114.792 115.488 115.679 114.394 115.679V118.679C117.145 118.679 119.375 116.449 119.375 113.698H116.375ZM114.394 115.679C113.3 115.679 112.413 114.792 112.413 113.698H109.413C109.413 116.449 111.643 118.679 114.394 118.679V115.679ZM112.413 113.698C112.413 112.604 113.3 111.717 114.394 111.717V108.717C111.643 108.717 109.413 110.947 109.413 113.698H112.413ZM114.394 111.717C115.488 111.717 116.375 112.604 116.375 113.698H119.375C119.375 110.947 117.145 108.717 114.394 108.717V111.717Z" fill="#CAC6C8"/>
<ellipse cx="141.413" cy="103.587" rx="9.28261" ry="9.28261" fill="#BDB8BA"/>
<rect x="140.485" y="98.9459" width="1.85652" height="9.28261" rx="0.928261" fill="#F8F8F8"/>
<rect x="136.772" y="104.516" width="1.85652" height="9.28261" rx="0.928261" transform="rotate(-90 136.772 104.516)" fill="#F8F8F8"/>
<defs>
<filter id="filter0_b_1094_29288" x="-20" y="-20" width="280" height="280" filterUnits="userSpaceOnUse" color-interpolation-filters="sRGB">
<feFlood flood-opacity="0" result="BackgroundImageFix"/>
<feGaussianBlur in="BackgroundImageFix" stdDeviation="10"/>
<feComposite in2="SourceAlpha" operator="in" result="effect1_backgroundBlur_1094_29288"/>
<feBlend mode="normal" in="SourceGraphic" in2="effect1_backgroundBlur_1094_29288" result="shape"/>
</filter>
</defs>
</svg>
