<svg width="23" height="23" viewBox="0 0 23 23" fill="none" xmlns="http://www.w3.org/2000/svg">
<path d="M3.71967 17.5322C3.42678 17.8251 3.42678 18.2999 3.71967 18.5928C4.01256 18.8857 4.48744 18.8857 4.78033 18.5928L3.71967 17.5322ZM7.75 14.5625L8.28033 14.0322C7.98744 13.7393 7.51256 13.7393 7.21967 14.0322L7.75 14.5625ZM9.5 16.3125L8.96967 16.8428C9.26256 17.1357 9.73744 17.1357 10.0303 16.8428L9.5 16.3125ZM13.4375 12.375L13.9678 11.8447C13.6749 11.5518 13.2001 11.5518 12.9072 11.8447L13.4375 12.375ZM16.4072 16.4053C16.7001 16.6982 17.1749 16.6982 17.4678 16.4053C17.7607 16.1124 17.7607 15.6376 17.4678 15.3447L16.4072 16.4053ZM4.78033 18.5928L8.28033 15.0928L7.21967 14.0322L3.71967 17.5322L4.78033 18.5928ZM7.21967 15.0928L8.96967 16.8428L10.0303 15.7822L8.28033 14.0322L7.21967 15.0928ZM10.0303 16.8428L13.9678 12.9053L12.9072 11.8447L8.96967 15.7822L10.0303 16.8428ZM12.9072 12.9053L16.4072 16.4053L17.4678 15.3447L13.9678 11.8447L12.9072 12.9053ZM6 6.125H14.75V4.625H6V6.125ZM16.625 8V16.75H18.125V8H16.625ZM14.75 18.625H6V20.125H14.75V18.625ZM4.125 16.75V8H2.625V16.75H4.125ZM6 18.625C4.96447 18.625 4.125 17.7855 4.125 16.75H2.625C2.625 18.614 4.13604 20.125 6 20.125V18.625ZM16.625 16.75C16.625 17.7855 15.7855 18.625 14.75 18.625V20.125C16.614 20.125 18.125 18.614 18.125 16.75H16.625ZM14.75 6.125C15.7855 6.125 16.625 6.96447 16.625 8H18.125C18.125 6.13604 16.614 4.625 14.75 4.625V6.125ZM6 4.625C4.13604 4.625 2.625 6.13604 2.625 8H4.125C4.125 6.96447 4.96447 6.125 6 6.125V4.625ZM7.875 9.3125C7.875 9.62316 7.62316 9.875 7.3125 9.875V11.375C8.45159 11.375 9.375 10.4516 9.375 9.3125H7.875ZM7.3125 9.875C7.00184 9.875 6.75 9.62316 6.75 9.3125H5.25C5.25 10.4516 6.17341 11.375 7.3125 11.375V9.875ZM6.75 9.3125C6.75 9.00184 7.00184 8.75 7.3125 8.75V7.25C6.17341 7.25 5.25 8.17341 5.25 9.3125H6.75ZM7.3125 8.75C7.62316 8.75 7.875 9.00184 7.875 9.3125H9.375C9.375 8.17341 8.45159 7.25 7.3125 7.25V8.75Z" fill="#222222"/>
<circle cx="17.5" cy="5.5" r="3.5" fill="#222222"/>
<rect x="17.15" y="3.75" width="0.7" height="3.5" rx="0.35" fill="white"/>
<rect x="15.75" y="5.8501" width="0.7" height="3.5" rx="0.35" transform="rotate(-90 15.75 5.8501)" fill="white"/>
</svg>
