<svg width="99" height="25" viewBox="0 0 99 25" fill="none" xmlns="http://www.w3.org/2000/svg">
<g id="Group 43">
<path id="Vector" d="M96.4227 6.28076H90.1826V10.1911H96.4227V6.28076Z" fill="#FF0075"/>
<path id="Vector_2" d="M25.979 24.5349C24.1371 24.5349 22.6498 23.7498 21.7805 22.3161C20.7683 20.6465 20.3036 17.4657 23.0957 11.5422L25.1648 7.02197L29.5888 8.63765C26.1185 14.6556 24.5158 18.9129 25.4816 20.1664C25.5229 20.2186 25.578 20.3298 26.0066 20.3231C26.0462 20.3231 29.9503 20.1917 32.1262 13.3768L36.2335 14.6337C33.19 24.166 26.7847 24.5248 26.0651 24.5349C26.0359 24.5349 26.0066 24.5349 25.9773 24.5349H25.979Z" fill="#FF0075"/>
<path id="Vector_3" d="M36.9258 10.8245C36.201 13.3971 35.7328 16.6992 36.9653 19.0966C37.6143 20.3484 38.9553 20.6887 40.2653 20.3231C40.9762 20.1226 41.5736 19.6879 42.102 19.1303C43.9973 17.021 44.8615 13.8688 45.1782 11.0957C45.2539 10.2753 45.2643 9.37055 45.0078 8.77078C44.7513 8.17101 44.2159 8.16595 43.9112 8.83817C43.6065 9.51038 43.5911 10.2651 43.6685 11.4226C43.8699 14.2243 46.0045 16.2005 48.8362 16.7481C50.7194 17.1473 54.9833 17.2013 58.4279 14.5781C59.156 14.0221 59.8928 13.4375 60.4419 12.7333C61.1649 11.7764 61.8449 10.4404 61.0289 9.5087C60.6244 9.04876 60.151 8.94768 59.533 8.95779C57.5655 9.0892 55.7235 10.934 54.8129 12.6541C53.8971 14.4298 53.2688 16.9199 54.3481 18.6501C54.8921 19.5397 56.1608 20.1664 57.2659 20.404C59.2937 20.7696 61.8586 20.3753 63.3322 18.9382L66.4187 22.0971C64.2239 24.0784 61.3078 24.8298 58.4537 24.759C56.2933 24.7018 54.0676 24.0161 52.3427 22.6497C49.2252 20.2001 48.9498 16.0118 50.1479 12.5716C51.5095 8.33611 55.7425 4.04337 60.6433 4.69032C62.8863 5.04917 64.8815 6.56376 65.5786 8.74719C66.2964 11.18 65.3187 13.665 63.6558 15.3565C59.3316 19.7553 52.4959 19.6172 49.1615 18.7933C46.6827 18.1818 44.1867 17.4877 42.3981 15.5687C40.4839 13.5184 39.5888 10.683 40.2859 7.87281C40.7283 6.07855 42.2122 4.28935 44.3227 4.18826C45.3348 4.12593 46.3453 4.32978 47.2129 4.91439C48.7312 5.90502 49.3165 7.83237 49.4266 9.43288C49.6625 13.5858 48.2957 18.913 45.3968 22.0685C43.2382 24.4726 39.8728 25.5088 36.7243 24.3766C33.6086 23.263 32.1592 20.0754 31.9474 17.0614C31.7529 14.4821 32.2005 11.9954 33.044 9.59967L36.9258 10.8211V10.8245Z" fill="#FF0075"/>
<path id="Vector_4" d="M69.9754 16.3858C72.0944 16.4094 74.4407 15.7557 76.3171 14.2933C78.1624 12.8562 79.5998 10.5936 78.3655 9.42439C77.9662 9.04364 77.436 8.81788 76.8696 8.83641C75.7524 8.87179 74.7557 9.44629 73.8537 10.2297C71.9653 11.8993 70.7827 14.6505 71.0409 17.1102C71.2389 18.9382 72.6281 19.9456 74.3891 20.3769C76.4668 20.8032 79.0575 20.4039 80.581 18.9398L83.6675 22.0988C83.1304 22.5856 82.54 23.0068 81.922 23.3488C79.2899 24.7623 76.1862 25.1094 73.2943 24.4372C66.1883 22.6059 65.3396 15.7658 68.5656 10.169C69.9719 7.86937 71.9085 6.01109 74.5957 5.10975C76.6665 4.41563 79.1161 4.69867 80.834 6.11891C83.8568 8.49778 83.3886 12.371 81.1198 15.0194C77.8973 18.7815 73.4836 19.1858 71.0048 18.9483L69.9771 16.3875L69.9754 16.3858Z" fill="#FF0075"/>
<path id="Vector_5" d="M11.0463 24.7558C6.9063 24.7558 2.51498 22.4359 0 20.1345L2.93845 17.0565C4.83372 18.7884 7.7429 20.3215 11.0033 20.709C12.4974 20.8859 14.4616 20.613 15.0417 19.5365C15.3756 18.9165 15.2207 18.3083 14.749 18.0185C14.0536 17.5939 12.8934 17.3193 11.9621 17.0986C11.6006 17.0127 11.2615 16.9335 10.9378 16.8442C10.7932 16.8038 10.6418 16.7634 10.4834 16.7229C8.34884 16.1552 3.90416 14.9742 3.84219 10.7488C3.81981 9.20726 4.39992 7.80387 5.524 6.68856C7.15762 5.06615 9.46603 4.48828 11.0807 4.48828C16.2208 4.48828 20.335 8.21495 20.5072 8.37331L17.5618 11.4446C17.536 11.4227 14.4943 8.70015 11.079 8.70015C10.3147 8.70015 9.31455 8.79281 8.68968 9.41449C8.37638 9.72448 8.19735 10.0934 8.27309 10.5955C8.40392 11.4732 9.3748 12.0646 11.6126 12.6593C11.7831 12.7048 11.9466 12.7486 12.1015 12.7907C12.3477 12.8581 12.6506 12.9306 12.9708 13.0064C14.2051 13.2978 15.7423 13.6617 17.0282 14.4485C18.9149 15.6026 19.7687 17.3951 19.433 19.4977C18.9131 22.7408 15.6993 24.7575 11.0463 24.7575V24.7558Z" fill="#FF0075"/>
<path id="Vector_6" d="M92.4462 0.791832C91.5063 6.40204 90.4391 12.2077 89.2151 17.7657C88.9707 18.7192 88.7108 19.5128 89.5783 20.2557C91.5235 21.7737 94.5773 20.9532 96.1765 19.1825L98.9996 21.6187C97.9134 22.8654 96.4726 23.8965 94.8235 24.471C90.7971 25.9687 85.218 24.2705 84.5467 19.5768C84.3608 18.3368 84.7033 17.0985 84.903 15.8906C85.9031 10.6813 86.967 5.1924 88.0997 0L92.4445 0.795202L92.4462 0.791832Z" fill="#FF0075"/>
</g>
</svg>
