<svg width="25" height="38" viewBox="0 0 25 38" fill="none" xmlns="http://www.w3.org/2000/svg">
<path d="M6 15.042C6 14.432 6.49449 13.9375 7.10448 13.9375H17.8955C18.5055 13.9375 19 14.432 19 15.042V35.9469C19 36.814 18.0467 37.3429 17.311 36.8841L13.0845 34.248C12.7268 34.0249 12.2732 34.0249 11.9155 34.248L7.68898 36.8841C6.9533 37.3429 6 36.814 6 35.9469V15.042Z" fill="#F57C75"/>
<path d="M12.5 25.0625C19.4036 25.0625 25 19.4661 25 12.5625C25 5.65893 19.4036 0.0625 12.5 0.0625C5.59645 0.0625 0 5.65893 0 12.5625C0 19.4661 5.59645 25.0625 12.5 25.0625Z" fill="#DFDFDF"/>
<path d="M9.34163 16.6485C11.3996 14.6745 14.0876 12.8825 14.0876 11.2165C14.0876 10.1245 13.4016 9.3545 12.4216 9.3545C11.6516 9.3545 10.8816 9.9005 10.5316 10.6845L9.07563 10.0265C9.66363 8.7245 11.0496 7.8005 12.4216 7.8005C14.3956 7.8005 15.7676 9.2145 15.7676 11.2165C15.7676 13.3585 13.6116 15.1085 11.7636 16.6485H15.9216V18.1185H9.48163L9.34163 16.6485Z" fill="black"/>
</svg>
