<svg width="28" height="28" viewBox="0 0 28 28" fill="none" xmlns="http://www.w3.org/2000/svg">
<path d="M7 13C9.20914 13 11 11.2091 11 9C11 6.79086 9.20914 5 7 5C4.79086 5 3 6.79086 3 9C3 11.2091 4.79086 13 7 13Z" fill="#929292"/>
<path d="M20.9062 23C23.1154 23 24.9062 21.2091 24.9062 19C24.9062 16.7909 23.1154 15 20.9062 15C18.6971 15 16.9062 16.7909 16.9062 19C16.9062 21.2091 18.6971 23 20.9062 23Z" fill="#929292"/>
<path d="M20.7802 5H11.752V13H20.7802C22.9743 13 24.752 11.2097 24.752 9C24.752 6.79028 22.9743 5 20.7802 5Z" fill="#B7B7B7"/>
<path d="M12.0183 15H6.98167C4.78265 15 3 16.7909 3 19C3 21.2091 4.78265 23 6.98167 23H12.0183C14.2173 23 16 21.2091 16 19C16 16.7909 14.2173 15 12.0183 15Z" fill="#424242"/>
</svg>
