<svg width="225" height="66" viewBox="0 0 225 66" fill="none" xmlns="http://www.w3.org/2000/svg">
<path d="M0 20C0 8.95431 8.95431 0 20 0H225V46C225 57.0457 216.046 66 205 66H20C8.9543 66 0 57.0457 0 46V20Z" fill="#FF2176"/>
<path d="M24.48 17.528C26.426 17.528 27.868 18.774 27.868 20.538C27.868 22.302 26.426 23.548 24.48 23.548C22.52 23.548 21.092 22.302 21.092 20.538C21.092 18.774 22.52 17.528 24.48 17.528ZM20.532 25.298C22.744 25.298 25.838 25.284 28.498 24.878L28.61 25.97C25.88 26.502 22.898 26.53 20.7 26.53L20.532 25.298ZM22.562 20.538C22.562 21.588 23.388 22.26 24.48 22.26C25.572 22.26 26.398 21.588 26.398 20.538C26.398 19.488 25.572 18.83 24.48 18.83C23.388 18.83 22.562 19.488 22.562 20.538ZM29.24 29.148V16.66H30.738V29.148H29.24ZM41.5323 16.674H43.0583V25.872H41.5323V23.156H38.5363V21.924H41.5323V20.342H38.7183C37.8503 22.26 36.0163 23.702 33.5103 24.5L32.8803 23.31C35.6243 22.428 37.4023 20.818 37.6683 18.83H33.5383V17.626H39.2923C39.2923 18.158 39.2363 18.662 39.1243 19.138H41.5323V16.674ZM35.0083 28.882V24.99H36.5343V27.664H43.3523V28.882H35.0083ZM48.9592 17.976H51.5072V16.702H53.0192V17.976H55.5952V19.152H53.0192C53.0332 20.244 54.0412 21.21 55.8472 21.588L55.2452 22.75C53.8452 22.456 52.8372 21.77 52.3052 20.888C51.7592 21.868 50.7372 22.596 49.2672 22.918L48.6512 21.756C50.5132 21.364 51.5072 20.314 51.5212 19.152H48.9592V17.976ZM48.1752 23.59C50.4712 23.59 53.5512 23.576 56.1972 23.212L56.2952 24.318C55.2172 24.5 54.1112 24.626 53.0192 24.696V28.756H51.5072V24.78C50.3732 24.822 49.3092 24.836 48.3572 24.836L48.1752 23.59ZM56.9952 29.12V16.674H58.4792V29.12H56.9952ZM68.6435 16.674H70.1555V19.74H71.8775V20.986H70.1555V23.94H68.6435V16.674ZM60.4255 19.04V17.836H63.3515V16.562H64.8495V17.836H67.7615V19.04H60.4255ZM61.0835 21.658C61.0835 20.342 62.3015 19.46 64.0935 19.46C65.8995 19.46 67.1315 20.342 67.1315 21.658C67.1315 22.988 65.8995 23.856 64.0935 23.856C62.3015 23.856 61.0835 22.988 61.0835 21.658ZM62.1755 28.966V24.444H63.6595V25.55H68.6575V24.444H70.1555V28.966H62.1755ZM62.5115 21.658C62.5115 22.344 63.1555 22.75 64.0935 22.75C65.0455 22.75 65.6755 22.344 65.6755 21.658C65.6755 20.986 65.0455 20.58 64.0935 20.58C63.1555 20.58 62.5115 20.986 62.5115 21.658ZM63.6595 27.776H68.6575V26.698H63.6595V27.776ZM74.0199 17.584H82.5599V18.788H75.5179V22.33H82.6859V23.548H79.0179V26.404H83.9179V27.636H72.6479V26.404H77.5199V23.548H74.0199V17.584ZM91.4708 17.57C93.1368 17.57 94.3968 18.984 94.6068 21.266H96.9588V16.66H98.4568V29.148H96.9588V22.47H94.6208C94.4668 24.878 93.1928 26.39 91.4708 26.39C89.6368 26.39 88.3068 24.668 88.3068 21.966C88.3068 19.278 89.6368 17.57 91.4708 17.57ZM89.7348 21.966C89.7348 23.898 90.4488 25.018 91.4708 25.018C92.5208 25.018 93.2068 23.898 93.2068 21.966C93.2068 20.062 92.5208 18.942 91.4708 18.942C90.4488 18.942 89.7348 20.062 89.7348 21.966ZM109.167 16.688H110.679V23.632H109.167V21.798H106.997V20.594H109.167V19.348H106.997V18.144H109.167V16.688ZM100.809 18.382V17.178H106.241V20.762H102.335V22.106C104.337 22.106 105.457 22.064 106.801 21.84L106.941 23.044C105.443 23.296 104.183 23.324 101.747 23.324H100.837V19.628H104.757V18.382H100.809ZM102.475 28.966V24.122H103.959V25.354H109.195V24.122H110.679V28.966H102.475ZM103.959 27.762H109.195V26.516H103.959V27.762ZM113.759 17.808H122.649V19.012C122.649 20.566 122.649 22.288 122.173 24.892L120.661 24.724C121.137 22.288 121.137 20.524 121.137 19.026H113.759V17.808ZM112.583 27.51V26.278H116.741V21.924H118.239V26.278H123.839V27.51H112.583ZM29.24 37.688H30.752V45.276H29.24V37.688ZM21.092 39.634V38.444H26.79V42.07H22.59V43.442C24.718 43.428 26.244 43.372 28.008 43.078L28.176 44.296C26.258 44.604 24.578 44.66 22.17 44.66H21.12V40.936H25.306V39.634H21.092ZM22.38 47.81C22.38 46.354 23.99 45.514 26.622 45.514C29.226 45.514 30.836 46.354 30.836 47.81C30.836 49.28 29.226 50.12 26.622 50.12C23.99 50.12 22.38 49.28 22.38 47.81ZM23.892 47.81C23.892 48.552 24.858 48.944 26.622 48.944C28.358 48.944 29.338 48.552 29.338 47.81C29.338 47.082 28.358 46.69 26.622 46.69C24.858 46.69 23.892 47.082 23.892 47.81ZM34.0143 38.836H42.7363V40.306C42.7363 42.126 42.7363 43.848 42.1763 46.48L40.6783 46.34C40.9303 45.248 41.0703 44.282 41.1403 43.4L33.8603 43.764L33.6643 42.546L41.2103 42.266C41.2383 41.594 41.2383 40.95 41.2383 40.306V40.054H34.0143V38.836ZM32.7123 48.538V47.292H43.9683V48.538H32.7123ZM46.3207 38.584H54.8607V39.788H47.8187V43.33H54.9867V44.548H51.3187V47.404H56.2187V48.636H44.9487V47.404H49.8207V44.548H46.3207V38.584ZM60.4115 47.376H65.2835V44.632H61.6575V38.64H70.4075V44.632H66.7815V47.376H71.6815V48.594H60.4115V47.376ZM63.1275 43.442H68.9235V39.83H63.1275V43.442ZM75.9799 38.57C77.8419 38.57 79.1859 40.278 79.1859 42.966C79.1859 45.668 77.8419 47.39 75.9799 47.39C74.1179 47.39 72.7599 45.668 72.7599 42.966C72.7599 40.278 74.1179 38.57 75.9799 38.57ZM74.2159 42.966C74.2159 44.898 74.9299 46.018 75.9799 46.018C77.0299 46.018 77.7439 44.898 77.7439 42.966C77.7439 41.062 77.0299 39.942 75.9799 39.942C74.9299 39.942 74.2159 41.062 74.2159 42.966ZM80.8239 50.12V37.674H82.3359V42.49H84.2259V43.736H82.3359V50.12H80.8239ZM84.8842 47.376H89.7562V44.912H86.1442V38.5H87.6282V40.544H93.3962V38.5H94.8802V44.912H91.2542V47.376H96.1542V48.608H84.8842V47.376ZM87.6282 43.722H93.3962V41.734H87.6282V43.722ZM105.899 37.674H107.411V50.12H105.899V37.674ZM97.1905 46.732C100.439 45.164 101.937 43.036 102.189 40.18H97.8205V38.976H103.729C103.729 42.7 102.301 45.836 97.9885 47.922L97.1905 46.732ZM114.473 45.402H115.957V46.564H121.333V45.402H122.845V49.966H114.473V45.402ZM112.597 43.008C114.893 43.008 117.945 42.994 120.591 42.644L120.703 43.736C119.695 43.904 118.645 44.016 117.623 44.086V45.696H116.139V44.156C114.935 44.212 113.787 44.212 112.765 44.212L112.597 43.008ZM113.073 41.244C114.963 40.824 115.971 39.732 115.971 38.528V37.982H117.539V38.528C117.539 39.662 118.561 40.684 120.409 41.048L119.779 42.21C118.351 41.888 117.315 41.188 116.769 40.25C116.237 41.258 115.201 42.028 113.717 42.378L113.073 41.244ZM115.957 48.776H121.333V47.698H115.957V48.776ZM121.333 44.828V37.674H122.845V44.828H121.333ZM125.198 38.892H132.184V40.152H129.454V41.23C129.454 43.288 130.672 45.43 132.646 46.256L131.806 47.446C130.364 46.802 129.286 45.486 128.712 43.904C128.152 45.612 127.06 47.068 125.604 47.754L124.75 46.578C126.71 45.668 127.928 43.344 127.928 41.23V40.152H125.198V38.892ZM133.556 50.12V37.674H135.068V50.12H133.556ZM145.218 37.66H146.73V42.546H148.578V43.792H146.73V50.106H145.218V37.66ZM137.014 46.718C140.024 45.192 141.648 43.05 141.942 40.194H137.658V38.976H143.468C143.468 42.63 141.956 45.822 137.868 47.866L137.014 46.718ZM155.935 38.318C157.825 38.318 159.225 39.522 159.225 41.202C159.225 42.91 157.825 44.1 155.935 44.1C154.073 44.1 152.673 42.91 152.673 41.202C152.673 39.522 154.073 38.318 155.935 38.318ZM153.709 49.798V45.094H155.165V48.566C155.879 48.524 156.621 48.412 157.335 48.174L157.573 49.364C156.467 49.742 155.417 49.798 154.367 49.798H153.709ZM154.129 41.202C154.129 42.224 154.913 42.868 155.935 42.868C156.985 42.868 157.755 42.224 157.755 41.202C157.755 40.208 156.985 39.55 155.935 39.55C154.913 39.55 154.129 40.208 154.129 41.202ZM157.125 46.228V45.15H159.519V44.17H160.975V45.15H163.355V46.228H157.125ZM157.881 48.37C157.881 47.306 158.847 46.62 160.247 46.62C161.619 46.62 162.599 47.306 162.599 48.37C162.599 49.434 161.619 50.12 160.247 50.12C158.847 50.12 157.881 49.434 157.881 48.37ZM159.225 48.37C159.225 48.832 159.645 49.084 160.247 49.084C160.835 49.084 161.255 48.832 161.255 48.37C161.255 47.908 160.835 47.656 160.247 47.656C159.645 47.656 159.225 47.908 159.225 48.37ZM160.751 43.82V37.674H162.263V40.348H163.985V41.594H162.263V43.82H160.751ZM165.287 38.934H166.771V45.78C167.989 45.752 169.109 45.682 170.397 45.416L170.593 46.676C169.039 47.012 167.667 47.068 166.127 47.068H165.287V38.934ZM168.745 42.938V41.706H171.335V37.926H172.749V49.518H171.335V42.938H168.745ZM173.981 50.12V37.674H175.409V50.12H173.981ZM180.246 41.832H191.46V43.05H188.66V48.244H187.148V43.05H184.488V48.244H182.99V43.05H180.246V41.832ZM192.483 41.832H203.697V43.05H200.897V48.244H199.385V43.05H196.725V48.244H195.227V43.05H192.483V41.832Z" fill="white"/>
</svg>
