<svg width="40" height="40" viewBox="0 0 40 40" fill="none" xmlns="http://www.w3.org/2000/svg">
<path d="M11 18.0704C11 17.4017 11.3342 16.7772 11.8906 16.4063L18.8907 11.7396C19.5625 11.2917 20.4377 11.2917 21.1095 11.7396L28.1095 16.4062C28.6659 16.7771 29.0001 17.4016 29.0001 18.0703V27.6C29.0001 28.3732 28.3733 29 27.6001 29H23.5C22.9477 29 22.5 28.5523 22.5 28V23.5C22.5 22.9477 22.0523 22.5 21.5 22.5H18.5C17.9477 22.5 17.5 22.9477 17.5 23.5V28C17.5 28.5523 17.0523 29 16.5 29H12.4C11.6268 29 11 28.3732 11 27.6V18.0704Z" stroke="#868384" stroke-width="1.5" stroke-linecap="round" stroke-linejoin="round"/>
</svg>
