<svg width="186" height="44" viewBox="0 0 186 44" fill="none" xmlns="http://www.w3.org/2000/svg">
<rect width="186" height="44" rx="22" fill="#FEE500"/>
<g clip-path="url(#clip0_251_34128)">
<path fill-rule="evenodd" clip-rule="evenodd" d="M45 13.6001C40.0292 13.6001 36 16.7131 36 20.5524C36 22.9401 37.5584 25.0451 39.9315 26.2971L38.933 29.9446C38.8448 30.2669 39.2134 30.5238 39.4965 30.337L43.8733 27.4483C44.2427 27.4839 44.6181 27.5047 45 27.5047C49.9705 27.5047 53.9999 24.3919 53.9999 20.5524C53.9999 16.7131 49.9705 13.6001 45 13.6001Z" fill="black"/>
</g>
<path d="M69.888 16.464C69.888 20.752 68.704 24.448 63.488 27.072L62.576 25.76C65.024 24.528 66.496 23.088 67.312 21.376L62.912 21.808L62.688 20.32L67.824 20C68.016 19.328 68.128 18.608 68.192 17.84H63.408V16.464H69.888ZM71.872 29.264V15.04H73.6V20.624H75.712V22.048H73.6V29.264H71.872ZM83.8724 16.464C83.8724 20.752 82.6884 24.448 77.4724 27.072L76.5604 25.76C79.0084 24.528 80.4804 23.088 81.2964 21.376L76.8964 21.808L76.6724 20.32L81.8084 20C82.0004 19.328 82.1124 18.608 82.1764 17.84H77.3924V16.464H83.8724ZM85.8564 29.264V15.04H87.5844V20.624H89.6964V22.048H87.5844V29.264H85.8564ZM96.9448 15.856C99.9688 15.856 102.193 17.376 102.193 19.696C102.193 21.808 100.369 23.232 97.7928 23.488V26.144H103.393V27.536H90.5128V26.144H96.0808V23.488C93.5048 23.232 91.6968 21.808 91.6968 19.696C91.6968 17.376 93.9208 15.856 96.9448 15.856ZM93.3768 19.696C93.3768 21.216 94.8648 22.176 96.9448 22.176C99.0248 22.176 100.513 21.216 100.513 19.696C100.513 18.176 99.0248 17.216 96.9448 17.216C94.8648 17.216 93.3768 18.176 93.3768 19.696ZM108.185 26.224H113.753V23.856H109.721V19.216H117.865V17.392H109.705V16.016H119.561V20.576H111.433V22.48H119.881V23.856H115.465V26.224H121.065V27.616H108.185V26.224ZM123.529 16.432H133.401V18.016C133.401 19.92 133.401 21.904 132.873 24.896L131.145 24.736C131.689 21.936 131.689 19.872 131.689 18.016V17.808H123.529V16.432ZM122.169 27.328V25.92H135.033V27.328H122.169ZM146.169 15.072H147.897V25.344H146.169V15.072ZM136.409 19.568C136.409 17.472 138.057 16 140.201 16C142.361 16 143.993 17.472 143.993 19.568C143.993 21.632 142.361 23.12 140.201 23.12C138.057 23.12 136.409 21.632 136.409 19.568ZM138.089 19.568C138.089 20.816 139.001 21.616 140.201 21.616C141.401 21.616 142.329 20.816 142.329 19.568C142.329 18.288 141.401 17.488 140.201 17.488C139.001 17.488 138.089 18.288 138.089 19.568ZM138.585 29.008V24.32H140.297V27.616H148.297V29.008H138.585Z" fill="black" fill-opacity="0.85"/>
<defs>
<clipPath id="clip0_251_34128">
<rect width="18" height="18" fill="white" transform="translate(36 13)"/>
</clipPath>
</defs>
</svg>
