<svg width="335" height="52" viewBox="0 0 335 52" fill="none" xmlns="http://www.w3.org/2000/svg">
<rect width="335" height="52" rx="26" fill="#FEE500"/>
<g clip-path="url(#clip0_251_34127)">
<path fill-rule="evenodd" clip-rule="evenodd" d="M119.5 17.6001C114.529 17.6001 110.5 20.7131 110.5 24.5524C110.5 26.9401 112.058 29.0451 114.432 30.2971L113.433 33.9446C113.345 34.2669 113.713 34.5238 113.996 34.337L118.373 31.4483C118.743 31.4839 119.118 31.5047 119.5 31.5047C124.47 31.5047 128.5 28.3919 128.5 24.5524C128.5 20.7131 124.47 17.6001 119.5 17.6001Z" fill="black"/>
</g>
<path d="M144.388 20.464C144.388 24.752 143.204 28.448 137.988 31.072L137.076 29.76C139.524 28.528 140.996 27.088 141.812 25.376L137.412 25.808L137.188 24.32L142.324 24C142.516 23.328 142.628 22.608 142.692 21.84H137.908V20.464H144.388ZM146.372 33.264V19.04H148.1V24.624H150.212V26.048H148.1V33.264H146.372ZM158.372 20.464C158.372 24.752 157.188 28.448 151.972 31.072L151.06 29.76C153.508 28.528 154.98 27.088 155.796 25.376L151.396 25.808L151.172 24.32L156.308 24C156.5 23.328 156.612 22.608 156.676 21.84H151.892V20.464H158.372ZM160.356 33.264V19.04H162.084V24.624H164.196V26.048H162.084V33.264H160.356ZM171.445 19.856C174.469 19.856 176.693 21.376 176.693 23.696C176.693 25.808 174.869 27.232 172.293 27.488V30.144H177.893V31.536H165.013V30.144H170.581V27.488C168.005 27.232 166.197 25.808 166.197 23.696C166.197 21.376 168.421 19.856 171.445 19.856ZM167.877 23.696C167.877 25.216 169.365 26.176 171.445 26.176C173.525 26.176 175.013 25.216 175.013 23.696C175.013 22.176 173.525 21.216 171.445 21.216C169.365 21.216 167.877 22.176 167.877 23.696ZM182.685 30.224H188.253V27.856H184.221V23.216H192.365V21.392H184.205V20.016H194.061V24.576H185.933V26.48H194.381V27.856H189.965V30.224H195.565V31.616H182.685V30.224ZM198.029 20.432H207.901V22.016C207.901 23.92 207.901 25.904 207.373 28.896L205.645 28.736C206.189 25.936 206.189 23.872 206.189 22.016V21.808H198.029V20.432ZM196.669 31.328V29.92H209.533V31.328H196.669ZM220.669 19.072H222.397V29.344H220.669V19.072ZM210.909 23.568C210.909 21.472 212.557 20 214.701 20C216.861 20 218.493 21.472 218.493 23.568C218.493 25.632 216.861 27.12 214.701 27.12C212.557 27.12 210.909 25.632 210.909 23.568ZM212.589 23.568C212.589 24.816 213.501 25.616 214.701 25.616C215.901 25.616 216.829 24.816 216.829 23.568C216.829 22.288 215.901 21.488 214.701 21.488C213.501 21.488 212.589 22.288 212.589 23.568ZM213.085 33.008V28.32H214.797V31.616H222.797V33.008H213.085Z" fill="black" fill-opacity="0.85"/>
<defs>
<clipPath id="clip0_251_34127">
<rect width="18" height="18" fill="white" transform="translate(110.5 17)"/>
</clipPath>
</defs>
</svg>
