<svg width="375" height="720" viewBox="0 0 375 720" fill="none" xmlns="http://www.w3.org/2000/svg">
<rect width="375" height="720" fill="white"/>
<path d="M237.266 88.0342H230.648V92.4137H237.266V88.0342Z" fill="#FF2176"/>
<path d="M162.553 108.479C160.6 108.479 159.022 107.6 158.1 105.994C157.027 104.124 156.534 100.562 159.495 93.9271L161.69 88.8645L166.382 90.6741C162.701 97.4141 161.002 102.182 162.026 103.586C162.07 103.645 162.128 103.769 162.583 103.762C162.625 103.762 166.765 103.615 169.073 95.982L173.429 97.3896C170.201 108.066 163.408 108.468 162.645 108.479C162.614 108.479 162.583 108.479 162.552 108.479H162.553Z" fill="#FF2176"/>
<path d="M174.163 93.1231C173.395 96.0044 172.898 99.7028 174.205 102.388C174.894 103.79 176.316 104.171 177.705 103.762C178.459 103.537 179.093 103.05 179.653 102.426C181.663 100.063 182.58 96.5328 182.916 93.4269C182.996 92.508 183.007 91.4947 182.735 90.8229C182.463 90.1512 181.895 90.1455 181.572 90.8984C181.249 91.6513 181.233 92.4966 181.315 93.793C181.528 96.9309 183.792 99.1443 186.796 99.7575C188.793 100.205 193.315 100.265 196.969 97.3272C197.741 96.7045 198.522 96.0497 199.105 95.261C199.872 94.1892 200.593 92.6929 199.727 91.6494C199.298 91.1343 198.796 91.0211 198.141 91.0324C196.054 91.1796 194.1 93.2458 193.135 95.1723C192.163 97.1611 191.497 99.95 192.642 101.888C193.219 102.884 194.564 103.586 195.736 103.852C197.887 104.262 200.607 103.82 202.17 102.211L205.444 105.748C203.116 107.967 200.023 108.809 196.996 108.73C194.705 108.666 192.344 107.898 190.515 106.367C187.208 103.624 186.916 98.9329 188.187 95.0798C189.631 90.3361 194.12 85.5283 199.318 86.2528C201.697 86.6547 203.813 88.3511 204.553 90.7965C205.314 93.5212 204.277 96.3044 202.513 98.1989C197.927 103.126 190.677 102.971 187.141 102.048C184.512 101.363 181.864 100.586 179.967 98.4367C177.937 96.1403 176.988 92.9646 177.727 89.8172C178.196 87.8077 179.77 85.8037 182.009 85.6905C183.082 85.6207 184.154 85.849 185.074 86.5038C186.684 87.6133 187.305 89.7719 187.422 91.5645C187.672 96.2158 186.222 102.182 183.148 105.716C180.858 108.409 177.289 109.569 173.95 108.301C170.645 107.054 169.108 103.484 168.883 100.108C168.677 97.2196 169.152 94.4345 170.046 91.7513L174.163 93.1193V93.1231Z" fill="#FF2176"/>
<path d="M209.216 99.3518C211.463 99.3782 213.952 98.6461 215.942 97.0082C217.899 95.3987 219.423 92.8646 218.114 91.555C217.691 91.1286 217.128 90.8757 216.528 90.8965C215.343 90.9361 214.286 91.5796 213.329 92.457C211.326 94.3269 210.072 97.4083 210.346 100.163C210.556 102.21 212.029 103.339 213.897 103.822C216.101 104.299 218.848 103.852 220.464 102.212L223.738 105.75C223.168 106.296 222.542 106.767 221.886 107.15C219.095 108.734 215.803 109.122 212.736 108.369C205.199 106.318 204.299 98.6574 207.72 92.3891C209.212 89.8134 211.266 87.7321 214.116 86.7226C216.312 85.9452 218.91 86.2622 220.732 87.8529C223.938 90.5172 223.442 94.8553 221.036 97.8215C217.618 102.035 212.937 102.488 210.307 102.222L209.218 99.3537L209.216 99.3518Z" fill="#FF2176"/>
<path d="M146.715 108.726C142.324 108.726 137.667 106.128 135 103.55L138.116 100.103C140.126 102.043 143.212 103.76 146.67 104.194C148.254 104.392 150.338 104.086 150.953 102.881C151.307 102.186 151.143 101.505 150.642 101.18C149.905 100.705 148.674 100.397 147.687 100.15C147.303 100.054 146.943 99.9653 146.6 99.8653C146.447 99.82 146.286 99.7747 146.118 99.7294C143.854 99.0935 139.14 97.7708 139.075 93.0384C139.051 91.3119 139.666 89.7401 140.858 88.4909C142.591 86.6738 145.039 86.0266 146.752 86.0266C152.203 86.0266 156.567 90.2005 156.75 90.3778L153.626 93.8177C153.598 93.7932 150.372 90.7439 146.75 90.7439C145.939 90.7439 144.879 90.8477 144.216 91.544C143.884 91.8912 143.694 92.3044 143.774 92.8667C143.913 93.8498 144.942 94.5121 147.316 95.1782C147.497 95.2291 147.67 95.2782 147.834 95.3253C148.096 95.4008 148.417 95.482 148.756 95.5669C150.065 95.8933 151.696 96.3009 153.06 97.1821C155.061 98.4746 155.966 100.482 155.61 102.837C155.059 106.469 151.65 108.728 146.715 108.728V108.726Z" fill="#FF2176"/>
<path d="M233.049 81.8866C232.052 88.17 230.92 94.6724 229.622 100.897C229.363 101.965 229.087 102.854 230.007 103.686C232.07 105.386 235.309 104.467 237.005 102.484L239.999 105.213C238.847 106.609 237.319 107.764 235.57 108.407C231.3 110.085 225.383 108.183 224.671 102.926C224.473 101.537 224.837 100.15 225.048 98.7972C226.109 92.9628 227.237 86.8152 228.439 80.9998L233.047 81.8904L233.049 81.8866Z" fill="#FF2176"/>
<path d="M159.988 61.78V72.112H158.49V67.45H153.618V72.112H152.134V61.78H153.618V66.162H158.49V61.78H159.988ZM165.011 70.908C166.047 70.908 166.747 70.082 166.747 68.808C166.747 67.548 166.047 66.708 165.011 66.708C163.975 66.708 163.275 67.534 163.275 68.808C163.275 70.082 163.961 70.908 165.011 70.908ZM161.791 68.808C161.791 66.834 163.121 65.434 165.011 65.434C166.901 65.434 168.231 66.834 168.231 68.808C168.231 70.768 166.901 72.182 165.011 72.182C163.121 72.182 161.791 70.768 161.791 68.808ZM178.154 65.448L176.194 72.126H174.822L173.506 67.814L172.218 72.126H170.846L168.844 65.448H170.384L171.546 69.718L172.75 65.448H174.234L175.48 69.718L176.614 65.448H178.154ZM183.856 72.126V66.722H182.596V65.434H183.856V63.096H185.34V65.434H186.922V66.722H185.34V72.126H183.856ZM191.193 70.908C192.229 70.908 192.929 70.082 192.929 68.808C192.929 67.548 192.229 66.708 191.193 66.708C190.157 66.708 189.457 67.534 189.457 68.808C189.457 70.082 190.143 70.908 191.193 70.908ZM187.973 68.808C187.973 66.834 189.303 65.434 191.193 65.434C193.083 65.434 194.413 66.834 194.413 68.808C194.413 70.768 193.083 72.182 191.193 72.182C189.303 72.182 187.973 70.768 187.973 68.808ZM200.92 69.256C200.92 70.278 201.522 70.908 202.404 70.908C203.342 70.908 203.986 70.292 203.972 69.27V65.448H205.47V72.126H203.972V71.356C203.552 71.874 202.866 72.182 202.208 72.182C200.598 72.182 199.436 71.02 199.436 69.312V65.448H200.92V69.256ZM208.303 69.83C208.597 70.558 209.325 70.894 209.773 70.894C210.473 70.894 210.921 70.628 210.921 70.166C210.921 69.746 210.305 69.55 209.619 69.312C208.709 68.99 207.421 68.556 207.421 67.268C207.421 66.092 208.499 65.378 209.871 65.378C210.697 65.378 211.929 65.854 212.265 67.058L211.019 67.506C210.795 66.764 210.193 66.652 209.871 66.652C209.283 66.652 208.905 66.89 208.905 67.268C208.905 67.688 209.479 67.856 210.193 68.108C211.145 68.444 212.405 68.878 212.405 70.152C212.405 71.37 211.327 72.168 209.773 72.168C208.751 72.168 207.631 71.524 207.141 70.502L208.303 69.83ZM217.046 72.154C215.156 72.154 213.826 70.768 213.826 68.808C213.826 66.834 215.156 65.448 217.046 65.448C219.118 65.448 219.776 67.142 219.818 67.254C220.224 68.206 220.098 69.27 220.098 69.382H215.282C215.45 70.278 216.206 70.894 217.046 70.894C218.152 70.894 218.6 70.25 218.712 70.054L219.902 70.586C219.58 71.342 218.642 72.154 217.046 72.154ZM215.282 68.206H218.698C218.558 67.38 218.082 66.708 217.046 66.708C216.15 66.708 215.45 67.338 215.282 68.206Z" fill="#FF2176"/>
<path d="M186 137L179.938 126.5L192.062 126.5L186 137Z" fill="#FF2176"/>
</svg>
