<svg width="76" height="20" viewBox="0 0 76 20" fill="none" xmlns="http://www.w3.org/2000/svg">
<g id="Group 43">
<path id="Vector" d="M74.0218 5.02454H69.2314V8.15278H74.0218V5.02454Z" fill="#4F4D4E"/>
<path id="Vector_2" d="M19.9438 19.628C18.5298 19.628 17.388 19 16.7207 17.853C15.9436 16.5173 15.5868 13.9727 17.7303 9.23382L19.3187 5.61768L22.7149 6.91021C20.0508 11.7246 18.8205 15.1304 19.5618 16.1332C19.5936 16.175 19.6358 16.2639 19.9649 16.2585C19.9953 16.2585 22.9924 16.1534 24.6628 10.7016L27.8158 11.707C25.4795 19.3329 20.5622 19.62 20.0098 19.628C19.9874 19.628 19.9649 19.628 19.9424 19.628H19.9438Z" fill="#4F4D4E"/>
<path id="Vector_3" d="M28.3476 8.65961C27.7912 10.7177 27.4318 13.3594 28.378 15.2773C28.8762 16.2787 29.9056 16.551 30.9113 16.2585C31.457 16.0981 31.9156 15.7504 32.3213 15.3043C33.7762 13.6168 34.4396 11.0951 34.6828 8.8766C34.7409 8.22022 34.7488 7.49646 34.5519 7.01664C34.355 6.53682 33.9441 6.53278 33.7102 7.07055C33.4763 7.60832 33.4644 8.21214 33.5238 9.13808C33.6784 11.3795 35.3171 12.9604 37.4909 13.3985C38.9366 13.7179 42.21 13.761 44.8543 11.6625C45.4132 11.2177 45.9788 10.75 46.4004 10.1867C46.9554 9.42111 47.4774 8.35231 46.851 7.60698C46.5405 7.23903 46.1771 7.15816 45.7027 7.16625C44.1922 7.27137 42.7782 8.74721 42.0791 10.1233C41.3761 11.5439 40.8938 13.5359 41.7223 14.9201C42.1399 15.6318 43.1139 16.1332 43.9622 16.3232C45.519 16.6157 47.488 16.3003 48.6192 15.1506L50.9886 17.6777C49.3037 19.2627 47.0651 19.8639 44.8741 19.8073C43.2156 19.7614 41.5069 19.2129 40.1828 18.1198C37.7896 16.1601 37.5782 12.8095 38.4979 10.0573C39.5432 6.66891 42.7927 3.23472 46.555 3.75227C48.2769 4.03935 49.8085 5.25102 50.3437 6.99777C50.8948 8.94399 50.1442 10.932 48.8676 12.2852C45.548 15.8043 40.3004 15.6938 37.7407 15.0347C35.8378 14.5454 33.9216 13.9902 32.5486 12.455C31.0791 10.8147 30.3919 8.54639 30.9271 6.29826C31.2667 4.86286 32.4059 3.4315 34.026 3.35063C34.803 3.30076 35.5787 3.46384 36.2448 3.93153C37.4103 4.72403 37.8596 6.26592 37.9442 7.54633C38.1252 10.8686 37.076 15.1304 34.8506 17.6548C33.1935 19.5781 30.61 20.407 28.193 19.5013C25.8011 18.6104 24.6884 16.0604 24.5258 13.6492C24.3765 11.5857 24.7201 9.59633 25.3676 7.67976L28.3476 8.65691V8.65961Z" fill="#4F4D4E"/>
<path id="Vector_4" d="M53.7184 13.1087C55.3452 13.1275 57.1464 12.6046 58.5868 11.4347C60.0034 10.285 61.1069 8.47494 60.1593 7.53957C59.8528 7.23496 59.4457 7.05436 59.011 7.06918C58.1533 7.09749 57.3882 7.55709 56.6957 8.18381C55.2461 9.51948 54.3382 11.7204 54.5364 13.6882C54.6884 15.1506 55.7548 15.9566 57.1067 16.3016C58.7017 16.6426 60.6906 16.3232 61.8601 15.1519L64.2295 17.6791C63.8172 18.0686 63.364 18.4055 62.8895 18.6791C60.869 19.8099 58.4863 20.0876 56.2663 19.5498C50.8112 18.0847 50.1597 12.6127 52.6361 8.13529C53.7158 6.29555 55.2025 4.80893 57.2653 4.08785C58.855 3.53256 60.7355 3.75899 62.0544 4.89519C64.3749 6.79828 64.0154 9.89687 62.2737 12.0156C59.7999 15.0252 56.4116 15.3487 54.5087 15.1587L53.7197 13.11L53.7184 13.1087Z" fill="#4F4D4E"/>
<path id="Vector_5" d="M8.47998 19.8046C5.3018 19.8046 1.93069 17.9486 0 16.1076L2.25578 13.6451C3.71073 15.0307 5.94405 16.2572 8.44694 16.5672C9.59399 16.7087 11.1018 16.4903 11.5471 15.6291C11.8035 15.1331 11.6846 14.6465 11.3225 14.4147C10.7886 14.0751 9.89793 13.8554 9.18301 13.6788C8.9055 13.6101 8.64516 13.5467 8.39672 13.4753C8.28572 13.443 8.16943 13.4106 8.04785 13.3783C6.40921 12.9241 2.99713 11.9792 2.94956 8.59897C2.93238 7.36573 3.37772 6.24301 4.24065 5.35077C5.49474 4.05284 7.26685 3.59055 8.5064 3.59055C12.4524 3.59055 15.6107 6.57188 15.7429 6.69857L13.4818 9.15561C13.462 9.13809 11.1269 6.96004 8.50509 6.96004C7.91835 6.96004 7.15056 7.03417 6.67086 7.53151C6.43035 7.7795 6.29292 8.07467 6.35106 8.47632C6.45149 9.17852 7.19682 9.6516 8.91475 10.1274C9.04558 10.1638 9.17112 10.1988 9.29005 10.2325C9.47902 10.2864 9.7116 10.3444 9.9574 10.405C10.9049 10.6382 12.085 10.9293 13.0721 11.5587C14.5205 12.482 15.1759 13.916 14.9183 15.5981C14.5192 18.1926 12.052 19.8059 8.47998 19.8059V19.8046Z" fill="#4F4D4E"/>
<path id="Vector_6" d="M70.9687 0.633466C70.2471 5.12164 69.4278 9.76615 68.4882 14.2125C68.3006 14.9754 68.101 15.6102 68.7671 16.2046C70.2603 17.419 72.6047 16.7626 73.8323 15.346L75.9996 17.295C75.1657 18.2923 74.0596 19.1172 72.7936 19.5768C69.7027 20.775 65.4197 19.4164 64.9044 15.6614C64.7616 14.6694 65.0246 13.6788 65.1779 12.7124C65.9457 8.54505 66.7624 4.15392 67.6319 0L70.9673 0.636161L70.9687 0.633466Z" fill="#4F4D4E"/>
</g>
</svg>
