<svg width="201" height="124" viewBox="0 0 201 124" fill="none" xmlns="http://www.w3.org/2000/svg">
<path d="M29.4689 40.0812C25.2597 55.311 22.5402 74.8595 29.6988 89.0521C33.4681 96.4626 41.2566 98.4773 48.8652 96.313C52.9944 95.1261 56.4637 92.5529 59.5331 89.2516C70.541 76.7645 75.5601 58.1037 77.3997 41.6869C77.8396 36.8297 77.8996 31.4739 76.4099 27.9232C74.9202 24.3726 71.8108 24.3427 70.0411 28.3222C68.2714 32.3017 68.1814 36.7699 68.6314 43.6218C69.8011 60.2081 82.1988 71.9073 98.6456 75.1487C109.584 77.5125 134.349 77.8317 154.355 62.3026C158.584 59.0113 162.863 55.5504 166.053 51.3814C170.252 45.7163 174.201 37.8072 169.462 32.2917C167.113 29.5689 164.363 28.9705 160.774 29.0303C149.346 29.8083 138.648 40.7295 133.359 50.9126C128.04 61.4249 124.391 76.1661 130.659 86.4091C133.819 91.6752 141.187 95.3854 147.606 96.7917C159.384 98.956 174.281 96.6221 182.84 88.1146L200.766 106.815C188.019 118.544 171.082 122.993 154.505 122.574C141.957 122.235 129.03 118.175 119.012 110.087C100.905 95.5849 99.3055 70.7902 106.264 50.4239C114.173 25.35 138.758 -0.0630187 167.222 3.76689C180.25 5.89129 191.838 14.8577 195.887 27.7836C200.056 42.1856 194.377 56.8968 184.719 66.9105C159.604 92.9518 119.902 92.134 100.535 87.2568C86.138 83.6364 71.6408 79.5272 61.2528 68.1671C50.1349 56.0291 44.9359 39.2434 48.9851 22.6072C51.5546 11.9852 60.173 1.39314 72.4307 0.794721C78.3095 0.425693 84.1784 1.63251 89.2174 5.09339C98.0357 10.9579 101.435 22.3679 102.075 31.8429C103.445 56.4281 95.5062 87.965 78.6694 106.646C66.1318 120.878 46.5856 127.012 28.2991 120.31C10.2025 113.717 1.78414 94.8468 0.55438 77.0039C-0.575404 61.7341 2.02409 47.0129 6.92316 32.8303L29.4689 40.0612V40.0812Z" fill="#FF2176"/>
</svg>
