<svg width="51" height="42" viewBox="0 0 51 42" fill="none" xmlns="http://www.w3.org/2000/svg">
<path d="M19.1476 28.5286C21.5378 23.0871 22.6893 15.0076 22.4416 10.5208C22.2273 7.31937 21.0892 3.46008 18.1367 1.47646C16.4496 0.305853 14.4846 -0.105713 12.5163 0.0224799C8.41224 0.22489 5.52671 3.80755 4.6664 7.40033C3.31401 13.0273 5.05136 18.7083 8.77377 22.8105C9.55039 23.6674 10.394 24.4062 11.2911 25.0438C9.0014 30.5965 4.78691 30.2794 2.43028 29.6216L0 38.0182C8.32186 41.2197 16.1818 35.144 19.1476 28.5286ZM11.2509 14.5049C11.1003 12.1873 11.1304 10.676 11.7229 9.32998C12.3154 7.98058 13.3498 7.97383 13.8553 9.19166C14.354 10.3926 14.3306 12.2042 14.1867 13.8471C13.9657 15.824 13.6109 17.8987 13.0786 19.9396C12.0409 18.3878 11.3949 16.556 11.2509 14.5049Z" fill="#FF2176"/>
<path d="M22.2732 35.6939C25.2729 38.7715 29.3901 40.6261 33.5238 41.2209C38.9845 41.9995 44.7511 41.1741 49.4136 37.7623L44.209 30.8485C41.053 33.3447 36.0413 33.5519 32.2335 32.3756C30.6106 31.8142 28.8513 30.7516 27.7638 29.4183C33.6136 29.5921 40.2615 28.3189 45.6424 23.8678C49.2174 20.9072 51.6617 16.2289 50.8403 11.2766C50.0023 6.81551 46.517 3.38366 42.2968 2.17399C33.0349 -0.19857 23.936 7.31007 20.3577 15.3534C19.1338 17.9331 17.8102 23.1394 18.2326 26.8452C18.6017 30.0666 20.055 33.4416 22.2732 35.6972V35.6939ZM29.2969 16.5564C31.4353 13.3718 35.3928 10.1471 39.1973 10.3309C40.3846 10.4479 41.2725 10.7553 41.941 11.7511C43.2945 13.7661 41.6849 16.2456 40.0786 17.9732C38.8647 19.2364 37.3183 20.2255 35.7952 21.1544C32.6957 23.0458 29.4167 23.928 26.407 24.2221C26.6231 21.522 27.8736 18.7217 29.2969 16.5564Z" fill="#FF2176"/>
</svg>
