<svg width="19" height="19" viewBox="0 0 19 19" fill="none" xmlns="http://www.w3.org/2000/svg">
<path d="M6.03376 8.14306L4.35867 9.81815C3.73307 10.4438 3.37331 11.295 3.37988 12.1896C3.38646 13.0842 3.73835 13.9406 4.39363 14.5757C5.02864 15.231 5.88524 15.5828 6.77971 15.5894C7.69457 15.5961 8.52565 15.2566 9.15129 14.631L10.8264 12.9559M12.966 10.8572L14.6411 9.18216C15.2667 8.55656 15.6264 7.70534 15.6199 6.81073C15.6133 5.91611 15.2614 5.0597 14.6061 4.42465C13.9713 3.78979 13.1148 3.43788 12.2202 3.4313C11.3256 3.42473 10.4742 3.76407 9.84861 4.38969L8.17352 6.06478M6.95971 11.9955L11.985 6.97026" stroke="#FF2176" stroke-width="1.5" stroke-linecap="round" stroke-linejoin="round"/>
</svg>
