<svg width="24" height="24" viewBox="0 0 24 24" fill="none" xmlns="http://www.w3.org/2000/svg">
<g id="ic_home_2">
<path id="Icon" d="M3 10.0704C3 9.40166 3.3342 8.7772 3.89061 8.40627L10.8907 3.73959C11.5625 3.29173 12.4377 3.29173 13.1095 3.73958L20.1095 8.40617C20.6659 8.7771 21.0001 9.40157 21.0001 10.0703V19.6C21.0001 20.3732 20.3733 21 19.6001 21H15.5C14.9477 21 14.5 20.5523 14.5 20V15.5C14.5 14.9477 14.0523 14.5 13.5 14.5H10.5C9.94772 14.5 9.5 14.9477 9.5 15.5V20C9.5 20.5523 9.05228 21 8.5 21H4.4C3.6268 21 3 20.3732 3 19.6V10.0704Z" stroke="#ACA7A9" stroke-width="1.5" stroke-linecap="round" stroke-linejoin="round"/>
</g>
</svg>
