<svg width="25" height="38" viewBox="0 0 25 38" fill="none" xmlns="http://www.w3.org/2000/svg">
<path d="M6 15.042C6 14.432 6.49449 13.9375 7.10448 13.9375H17.8955C18.5055 13.9375 19 14.432 19 15.042V35.9469C19 36.814 18.0467 37.3429 17.311 36.8841L13.0845 34.248C12.7268 34.0249 12.2732 34.0249 11.9155 34.248L7.68898 36.8841C6.9533 37.3429 6 36.814 6 35.9469V15.042Z" fill="#F57C75"/>
<path d="M12.5 25.0625C19.4036 25.0625 25 19.4661 25 12.5625C25 5.65893 19.4036 0.0625 12.5 0.0625C5.59645 0.0625 0 5.65893 0 12.5625C0 19.4661 5.59645 25.0625 12.5 25.0625Z" fill="#FFDD2B"/>
<path d="M13.5542 7.9265V18.1045L12.0702 18.0905V9.5085L10.2782 10.5025L9.66222 9.2565L12.0842 7.9265H13.5542Z" fill="black"/>
</svg>
