<svg width="28" height="28" viewBox="0 0 28 28" fill="none" xmlns="http://www.w3.org/2000/svg">
<g id="btn_instagram">
<path id="Vector" d="M9.85841 4.06921C8.7944 4.11941 8.0676 4.28981 7.4326 4.53861C6.7752 4.79481 6.218 5.13841 5.6636 5.69501C5.1086 6.25201 4.7678 6.81021 4.5134 7.46821C4.2672 8.10481 4.1002 8.83201 4.0534 9.89661C4.0066 10.9634 3.996 11.3036 4.0012 14.0192C4.0064 16.7344 4.0184 17.0752 4.0692 18.1422C4.12 19.206 4.2898 19.9324 4.5386 20.5678C4.7952 21.2252 5.1384 21.7822 5.6952 22.3368C6.2518 22.8914 6.8104 23.232 7.4688 23.4866C8.1048 23.7326 8.8322 23.9 9.8966 23.9466C10.9632 23.9936 11.3038 24.004 14.0186 23.9988C16.7346 23.9936 17.0752 23.9816 18.1418 23.931C19.2058 23.8802 19.9318 23.7098 20.5676 23.4616C21.225 23.2044 21.7822 22.8618 22.3366 22.305C22.891 21.7484 23.2318 21.1898 23.4862 20.5314C23.7324 19.8954 23.9 19.168 23.9462 18.1042C23.9928 17.037 24.0038 16.696 23.9986 13.981C23.9934 11.2656 23.9812 10.9254 23.9306 9.85901C23.88 8.79441 23.7096 8.06821 23.4612 7.43261C23.2042 6.77521 22.8614 6.21861 22.3048 5.66361C21.7482 5.10921 21.1896 4.76781 20.5312 4.51401C19.8948 4.26781 19.1678 4.10001 18.1034 4.05401C17.037 4.00641 16.6966 3.99601 13.9808 4.00121C11.2656 4.00641 10.9252 4.01801 9.8586 4.06921M9.9752 22.1468C9.00021 22.1044 8.4708 21.9424 8.118 21.8066C7.6508 21.6258 7.3174 21.409 6.9664 21.0608C6.6162 20.7112 6.3988 20.3788 6.2164 19.9126C6.0794 19.5598 5.9144 19.031 5.8688 18.056C5.8192 17.002 5.8078 16.6858 5.803 14.0156C5.7978 11.3462 5.8076 11.0298 5.8536 9.97501C5.8954 9.00081 6.0584 8.47061 6.1938 8.11821C6.3746 7.65041 6.5906 7.31761 6.9396 6.96661C7.2892 6.61581 7.6216 6.39901 8.0882 6.21661C8.4408 6.07881 8.96941 5.91521 9.94401 5.86901C10.9986 5.81901 11.3146 5.80841 13.984 5.80321C16.654 5.79801 16.9704 5.80741 18.0252 5.85381C18.9994 5.89621 19.5296 6.05761 19.8818 6.19401C20.3494 6.37481 20.6828 6.59021 21.0334 6.93981C21.384 7.28941 21.6014 7.62121 21.7838 8.08881C21.9214 8.44041 22.0852 8.96981 22.1312 9.94401C22.1814 10.9986 22.1928 11.3148 22.1976 13.9844C22.2028 16.6546 22.193 16.9708 22.1468 18.025C22.1044 19 21.9426 19.5296 21.8066 19.8828C21.6258 20.3496 21.4096 20.683 21.0604 21.034C20.7112 21.3836 20.3788 21.6016 19.9118 21.784C19.56 21.9214 19.0306 22.0854 18.0566 22.1316C17.002 22.1812 16.686 22.1926 14.0156 22.1974C11.3462 22.2026 11.0302 22.1926 9.9754 22.1468M18.1272 8.65461C18.1284 9.31681 18.667 9.85301 19.3292 9.85181C19.9918 9.85061 20.528 9.31241 20.527 8.65001C20.5256 7.98781 19.9872 7.45121 19.3246 7.45241C18.662 7.45361 18.1258 7.99221 18.127 8.65441M8.8654 14.0098C8.8708 16.8458 11.1742 19.1398 14.0096 19.1342C16.8452 19.1286 19.1404 16.826 19.135 13.99C19.1294 11.155 16.8258 8.85981 13.9898 8.86521C11.1544 8.87081 8.8598 11.1744 8.8654 14.0098ZM10.6666 14.0062C10.6634 12.1656 12.1532 10.6702 13.9934 10.667C15.834 10.6634 17.3296 12.1526 17.3332 13.9936C17.3368 15.8346 15.847 17.3296 14.006 17.3332C12.1656 17.3368 10.67 15.8474 10.6666 14.0064" fill="#686566"/>
</g>
</svg>
