<svg width="24" height="24" viewBox="0 0 24 24" fill="none" xmlns="http://www.w3.org/2000/svg">
<path fill-rule="evenodd" clip-rule="evenodd" d="M13.6763 4.31627C13.2488 2.56124 10.7512 2.56124 10.3237 4.31627C10.2599 4.57999 10.1347 4.82492 9.95831 5.03112C9.78194 5.23732 9.55938 5.39897 9.30874 5.50291C9.0581 5.60684 8.78646 5.65014 8.51592 5.62927C8.24538 5.60839 7.9836 5.52394 7.75187 5.38279C6.20832 4.44227 4.44201 6.20855 5.38254 7.75207C5.99006 8.74884 5.45117 10.0494 4.31713 10.325C2.56096 10.7514 2.56096 13.25 4.31713 13.6753C4.58093 13.7392 4.8259 13.8645 5.03211 14.041C5.23831 14.2175 5.39991 14.4402 5.50375 14.691C5.6076 14.9418 5.65074 15.2135 5.62968 15.4841C5.60862 15.7547 5.52394 16.0165 5.38254 16.2482C4.44201 17.7917 6.20832 19.558 7.75187 18.6175C7.98356 18.4761 8.24536 18.3914 8.51597 18.3704C8.78658 18.3493 9.05834 18.3924 9.30912 18.4963C9.5599 18.6001 9.7826 18.7617 9.95911 18.9679C10.1356 19.1741 10.2609 19.4191 10.3248 19.6829C10.7512 21.439 13.2499 21.439 13.6752 19.6829C13.7393 19.4192 13.8647 19.1744 14.0413 18.9684C14.2178 18.7623 14.4405 18.6008 14.6912 18.497C14.9419 18.3932 15.2135 18.35 15.4841 18.3709C15.7546 18.3919 16.0164 18.4764 16.2481 18.6175C17.7917 19.558 19.558 17.7917 18.6175 16.2482C18.4763 16.0165 18.3918 15.7547 18.3709 15.4842C18.35 15.2136 18.3932 14.942 18.497 14.6913C18.6008 14.4406 18.7623 14.2179 18.9683 14.0414C19.1744 13.8648 19.4192 13.7394 19.6829 13.6753C21.439 13.2489 21.439 10.7502 19.6829 10.325C19.4191 10.2611 19.1741 10.1358 18.9679 9.95928C18.7617 9.78278 18.6001 9.56007 18.4962 9.3093C18.3924 9.05853 18.3493 8.78677 18.3703 8.51617C18.3914 8.24556 18.4761 7.98376 18.6175 7.75207C19.558 6.20855 17.7917 4.44227 16.2481 5.38279C16.0164 5.52418 15.7546 5.60886 15.484 5.62992C15.2134 5.65098 14.9417 5.60784 14.6909 5.504C14.4401 5.40016 14.2174 5.23856 14.0409 5.03236C13.8644 4.82616 13.7391 4.58119 13.6752 4.3174L13.6763 4.31627Z" stroke="black" stroke-width="1.5"/>
<path d="M14 12C14 13.1046 13.1046 14 12 14C10.8954 14 10 13.1046 10 12C10 10.8954 10.8954 10 12 10C13.1046 10 14 10.8954 14 12Z" stroke="black" stroke-width="1.5"/>
</svg>
