<svg width="164" height="160" viewBox="0 0 164 160" fill="none" xmlns="http://www.w3.org/2000/svg">
<rect x="2" width="160" height="160" rx="4" fill="#F8F8F8"/>
<path d="M38.868 98.716H41.04V96.328H42.216V104.224H41.04V99.688H38.868V98.716ZM33.408 101.86C35.04 101.272 36 99.784 36 98.212V96.952H37.176V98.224C37.176 99.676 38.1 101.056 39.672 101.632L39.048 102.532C37.896 102.088 37.056 101.224 36.612 100.144C36.156 101.356 35.268 102.316 34.02 102.796L33.408 101.86ZM35.304 106.72V103.372H36.492V105.76H42.456V106.72H35.304ZM43.9203 100.696H53.5083V101.644H49.2963V102.532H52.3083V105.04H46.2363V105.94H52.6083V106.84H45.0843V104.2H51.1443V103.42H45.0483V102.532H48.1203V101.644H43.9203V100.696ZM45.1443 99.928V96.664H52.2723V99.928H45.1443ZM46.2963 99.004H51.1203V97.588H46.2963V99.004ZM59.2086 96.496C61.5726 96.496 62.9886 97.132 62.9886 98.32C62.9886 99.496 61.5726 100.144 59.2086 100.144C56.8326 100.144 55.4286 99.496 55.4286 98.32C55.4286 97.132 56.8326 96.496 59.2086 96.496ZM54.4086 101.728V100.78H63.9966V101.728H54.4086ZM55.5366 103.396V102.508H62.7966V105.028H56.7246V105.94H63.0966V106.84H55.5726V104.188H61.6326V103.396H55.5366ZM56.6406 98.32C56.6406 98.944 57.5526 99.268 59.2086 99.268C60.8526 99.268 61.7646 98.944 61.7646 98.32C61.7646 97.696 60.8526 97.36 59.2086 97.36C57.5526 97.36 56.6406 97.696 56.6406 98.32ZM67.6625 102.712H77.2625V103.684H73.0505V106.948H71.8625V103.684H67.6625V102.712ZM68.2265 101.08C70.2545 100.816 71.7665 99.7 71.8625 98.536H68.5625V97.588H71.8625V96.328H73.0505V97.588H76.3625V98.536H73.0505C73.1465 99.688 74.6585 100.816 76.6865 101.08L76.2665 102.004C74.5505 101.776 73.1465 100.984 72.4625 99.916C71.7665 100.984 70.3625 101.764 68.6345 102.004L68.2265 101.08ZM85.1828 96.304H86.3708V100.528H87.9908V101.5H86.3708V106.936H85.1828V96.304ZM78.1508 104.08C80.7668 102.748 82.1828 100.852 82.4108 98.392H78.6788V97.432H83.5988C83.5988 100.516 82.2788 103.24 78.8108 104.98L78.1508 104.08ZM88.615 98.056H90.643V96.604H91.807V98.056H93.811V98.992H88.615V98.056ZM88.927 102.076C88.927 100.636 89.887 99.628 91.219 99.628C92.563 99.628 93.523 100.636 93.523 102.076C93.523 103.54 92.563 104.548 91.219 104.548C89.887 104.548 88.927 103.54 88.927 102.076ZM89.971 102.076C89.971 102.976 90.499 103.552 91.219 103.552C91.951 103.552 92.479 102.976 92.479 102.076C92.479 101.2 91.951 100.6 91.219 100.6C90.499 100.6 89.971 101.2 89.971 102.076ZM94.279 106.432V96.544H95.395V100.732H96.547V96.316H97.663V106.936H96.547V101.692H95.395V106.432H94.279ZM99.1273 102.304H108.727V103.264H104.491V106.948H103.315V103.264H99.1273V102.304ZM99.6553 100.576C101.659 100.3 103.207 99.148 103.267 97.888H100.015V96.94H107.827V97.888H104.599C104.659 99.148 106.195 100.3 108.199 100.576L107.755 101.524C106.027 101.248 104.575 100.396 103.927 99.196C103.291 100.396 101.839 101.248 100.099 101.524L99.6553 100.576ZM113.792 100.024H115.376V96.532H116.48V106.42H115.376V100.996H113.792V100.024ZM109.448 103.828C110.948 102.94 111.704 101.032 111.704 99.22V97.3H112.844V99.172C112.844 100.888 113.504 102.676 114.932 103.564L114.26 104.476C113.3 103.888 112.652 102.844 112.292 101.632C111.908 102.964 111.2 104.092 110.18 104.716L109.448 103.828ZM117.536 106.936V96.316H118.664V106.936H117.536ZM120.104 104.656H122.372V101.884C121.52 101.404 121.004 100.636 121.004 99.7C121.004 98.008 122.648 96.916 124.904 96.916C127.172 96.916 128.804 98.008 128.804 99.7C128.804 100.636 128.3 101.392 127.448 101.884V104.656H129.728V105.616H120.104V104.656ZM122.156 99.7C122.156 100.84 123.284 101.548 124.904 101.548C126.512 101.548 127.652 100.84 127.652 99.7C127.652 98.56 126.512 97.852 124.904 97.852C123.284 97.852 122.156 98.56 122.156 99.7ZM123.548 104.656H126.272V102.328C125.852 102.424 125.396 102.472 124.904 102.472C124.424 102.472 123.968 102.424 123.548 102.328V104.656Z" fill="#ACA7A9"/>
<rect x="70" y="65" width="24" height="24" rx="12" fill="#EBE9EA"/>
<path d="M82 71L82 83M88 77L76 77" stroke="white" stroke-width="1.5" stroke-linecap="round"/>
<path d="M14 2C14 0.895432 14.8954 0 16 0H40C41.1046 0 42 0.895431 42 2V48.3718C42 49.9468 40.2639 50.9038 38.9322 50.0629L29.0678 43.8342C28.4155 43.4224 27.5845 43.4224 26.9322 43.8342L17.0678 50.0629C15.7361 50.9038 14 49.9468 14 48.3718V2Z" fill="#EBE9EA"/>
<rect width="164" height="26" rx="2" fill="#EBE9EA"/>
</svg>
