<svg width="80" height="64" viewBox="0 0 80 64" fill="none" xmlns="http://www.w3.org/2000/svg">
<g id="ic_logo_empty">
<g id="Group">
<g id="Union">
<mask id="path-1-outside-1_1373_44640" maskUnits="userSpaceOnUse" x="3" y="3" width="72" height="59" fill="black">
<rect fill="white" x="3" y="3" width="72" height="59"/>
<path fill-rule="evenodd" clip-rule="evenodd" d="M35.5947 18.1598C35.2898 13.8431 33.7327 8.66608 29.7301 5.99768C27.4296 4.41383 24.7503 3.85697 22.0664 4.03042C16.4704 4.30428 12.5359 9.15171 11.3628 14.0128C9.51878 21.6263 11.8877 29.3128 16.9634 34.8631C18.0223 36.0225 19.1726 37.0221 20.3958 37.8848C17.2737 45.3978 11.5271 44.9688 8.31377 44.0787L5 55.4396C15.4696 59.4362 25.403 52.7471 30.0534 44.6579C31.0239 47.4937 32.5657 50.162 34.5563 52.1765V52.1719C38.6734 56.3758 44.3242 58.909 49.9978 59.7215C57.4926 60.785 65.4073 59.6576 71.8066 54.9973L64.6633 45.5535C60.3317 48.9631 53.4531 49.2461 48.2268 47.6395C45.9993 46.8726 43.5848 45.4211 42.0922 43.5999C50.121 43.8373 59.2453 42.0982 66.6306 36.0184C71.5373 31.9743 74.8922 25.5841 73.7648 18.8196C72.6145 12.7261 67.831 8.03846 62.0387 6.38614C51.797 3.77514 41.7005 9.92527 35.5947 18.1598ZM20.9846 16.6237C20.1767 18.4449 20.1356 20.4897 20.341 23.6255C20.5373 26.4007 21.4183 28.8792 22.8332 30.9788C23.559 28.2173 24.0428 25.4102 24.344 22.7354C24.5403 20.5126 24.5723 18.0615 23.8922 16.4365C23.2029 14.7888 21.7925 14.7979 20.9846 16.6237ZM57.7847 17.5279C52.563 17.2769 47.1313 21.6815 44.1964 26.0314C42.2428 28.9892 40.5266 32.8142 40.2299 36.5022C44.3607 36.1006 48.8612 34.8956 53.1153 32.3121C55.2058 31.0432 57.3283 29.6921 58.9943 27.9668C61.1989 25.607 63.4081 22.2201 61.5504 19.4678C60.6329 18.1076 59.4142 17.6877 57.7847 17.5279Z"/>
</mask>
<path d="M35.5947 18.1598L35.096 18.1951L35.1912 19.5435L35.9964 18.4576L35.5947 18.1598ZM29.7301 5.99768L29.4465 6.40956L29.4527 6.41371L29.7301 5.99768ZM22.0664 4.03042L22.0908 4.52988L22.0986 4.52938L22.0664 4.03042ZM11.3628 14.0128L11.8488 14.1305L11.8489 14.1301L11.3628 14.0128ZM16.9634 34.8631L17.3325 34.5259L17.3323 34.5257L16.9634 34.8631ZM20.3958 37.8848L20.8575 38.0767L21.0112 37.7069L20.684 37.4762L20.3958 37.8848ZM8.31377 44.0787L8.44724 43.5969L7.97189 43.4652L7.83378 43.9387L8.31377 44.0787ZM5 55.4396L4.52 55.2996L4.39088 55.7423L4.82168 55.9067L5 55.4396ZM30.0534 44.6579L30.5264 44.496L30.1694 43.4528L29.6199 44.4087L30.0534 44.6579ZM34.5563 52.1765L34.2007 52.5279L35.0563 53.3939V52.1765H34.5563ZM34.5563 52.1719L34.9135 51.8221L34.0563 50.9468V52.1719H34.5563ZM49.9978 59.7215L49.9269 60.2164L49.9275 60.2165L49.9978 59.7215ZM71.8066 54.9973L72.101 55.4015L72.5126 55.1018L72.2054 54.6957L71.8066 54.9973ZM64.6633 45.5535L65.0621 45.2519L64.7546 44.8453L64.354 45.1606L64.6633 45.5535ZM48.2268 47.6395L48.064 48.1122L48.0719 48.1149L48.0799 48.1174L48.2268 47.6395ZM42.0922 43.5999L42.107 43.1001L41.0095 43.0677L41.7055 43.9169L42.0922 43.5999ZM66.6306 36.0184L66.9484 36.4044L66.9486 36.4043L66.6306 36.0184ZM73.7648 18.8196L74.2581 18.7374L74.2561 18.7269L73.7648 18.8196ZM62.0387 6.38614L62.176 5.90513L62.1623 5.90163L62.0387 6.38614ZM20.341 23.6255L19.8421 23.6582L19.8423 23.6608L20.341 23.6255ZM20.9846 16.6237L21.4417 16.8264L21.4419 16.826L20.9846 16.6237ZM22.8332 30.9788L22.4186 31.2582L23.036 32.1744L23.3168 31.1059L22.8332 30.9788ZM24.344 22.7354L24.8411 22.7914L24.8421 22.7794L24.344 22.7354ZM23.8922 16.4365L23.4309 16.6295L23.4309 16.6296L23.8922 16.4365ZM44.1964 26.0314L43.7819 25.7518L43.7792 25.7559L44.1964 26.0314ZM57.7847 17.5279L57.8335 17.0303L57.8211 17.0291L57.8087 17.0285L57.7847 17.5279ZM40.2299 36.5022L39.7315 36.4622L39.6836 37.0577L40.2783 36.9999L40.2299 36.5022ZM53.1153 32.3121L52.8559 31.8847L52.8558 31.8847L53.1153 32.3121ZM58.9943 27.9668L59.354 28.3141L59.3596 28.3081L58.9943 27.9668ZM61.5504 19.4678L61.1358 19.7474L61.1359 19.7475L61.5504 19.4678ZM36.0935 18.1246C36.0527 17.5465 35.9898 16.9531 35.9022 16.3523L34.9127 16.4966C34.9966 17.0721 35.0568 17.6408 35.096 18.1951L36.0935 18.1246ZM35.1066 12.8708C34.7425 11.7343 34.2696 10.6189 33.6675 9.57866L32.802 10.0796C33.363 11.0489 33.8086 12.0969 34.1542 13.1759L35.1066 12.8708ZM31.437 6.72206C30.9981 6.30737 30.5223 5.92494 30.0074 5.58166L29.4527 6.41371C29.9188 6.72442 30.3506 7.07132 30.7502 7.44891L31.437 6.72206ZM30.0136 5.58585C29.4235 5.17959 28.8095 4.83789 28.1776 4.55631L27.7706 5.46974C28.3475 5.72682 28.9079 6.03864 29.4465 6.40951L30.0136 5.58585ZM24.1204 3.54412C23.4279 3.48892 22.7304 3.48646 22.0342 3.53146L22.0986 4.52938C22.7497 4.4873 23.399 4.48979 24.0409 4.54095L24.1204 3.54412ZM22.042 3.53101C21.3392 3.56541 20.6609 3.66856 20.0092 3.83239L20.253 4.80221C20.8415 4.65427 21.4546 4.56096 22.0908 4.52982L22.042 3.53101ZM16.3139 5.56657C15.2094 6.35918 14.245 7.33826 13.4366 8.42653L14.2393 9.02288C14.9927 8.0088 15.8848 7.10533 16.897 6.37903L16.3139 5.56657ZM11.4851 11.9639C11.2368 12.6002 11.0332 13.2474 10.8768 13.8955L11.8489 14.1301C11.9945 13.5266 12.1845 12.9225 12.4167 12.3274L11.4851 11.9639ZM10.8769 13.8951C10.7252 14.5213 10.6014 15.1481 10.5046 15.7743L11.4929 15.927C11.5854 15.3285 11.7037 14.7293 11.8488 14.1305L10.8769 13.8951ZM10.2439 19.5927C10.2659 20.8789 10.3978 22.1514 10.6325 23.3997L11.6153 23.2149C11.3908 22.0211 11.2647 20.8046 11.2438 19.5756L10.2439 19.5927ZM11.6472 27.0876C12.0846 28.2847 12.6186 29.4463 13.2419 30.5617L14.1149 30.0739C13.5171 29.0042 13.0053 27.8909 12.5865 26.7444L11.6472 27.0876ZM15.3592 33.742C15.7512 34.2425 16.1632 34.7291 16.5944 35.2006L17.3323 34.5257C16.9183 34.073 16.5227 33.6058 16.1464 33.1253L15.3592 33.742ZM16.5942 35.2003C16.86 35.4914 17.1315 35.7726 17.4083 36.0443L18.1088 35.3307C17.8449 35.0716 17.5861 34.8035 17.3325 34.5259L16.5942 35.2003ZM19.1682 37.5929C19.4764 37.8358 19.7896 38.0691 20.1077 38.2934L20.684 37.4762C20.3802 37.262 20.0812 37.0392 19.7871 36.8074L19.1682 37.5929ZM19.9341 37.6929C19.6833 38.2963 19.4162 38.8447 19.1358 39.3427L20.0071 39.8333C20.3083 39.2985 20.5926 38.7142 20.8575 38.0767L19.9341 37.6929ZM16.9031 42.1477C15.9065 43.0065 14.844 43.5139 13.7893 43.7868L14.0398 44.7549C15.2328 44.4462 16.4355 43.8707 17.5559 42.9052L16.9031 42.1477ZM10.227 43.9622C9.58112 43.8779 8.97957 43.7443 8.44724 43.5969L8.18031 44.5606C8.74894 44.7181 9.39703 44.8624 10.0976 44.9538L10.227 43.9622ZM7.83378 43.9387L7.00533 46.7789L7.96533 47.059L8.79377 44.2187L7.83378 43.9387ZM5.34845 52.4594L4.52 55.2996L5.48 55.5796L6.30844 52.7394L5.34845 52.4594ZM4.82168 55.9067C5.42791 56.1381 6.03287 56.3348 6.63566 56.4984L6.89752 55.5333C6.32713 55.3785 5.7538 55.1922 5.17832 54.9725L4.82168 55.9067ZM10.4002 57.1054C11.6948 57.1741 12.9672 57.0992 14.2077 56.8993L14.0485 55.912C12.8756 56.1011 11.6744 56.1716 10.4532 56.1068L10.4002 57.1054ZM17.8862 55.9197C19.0745 55.476 20.2192 54.9222 21.3104 54.2782L20.8022 53.417C19.7583 54.033 18.6665 54.5609 17.5364 54.9829L17.8862 55.9197ZM24.4102 52.0993C25.3876 51.2932 26.3029 50.4157 27.1462 49.486L26.4056 48.8141C25.5935 49.7092 24.7131 50.5533 23.774 51.3278L24.4102 52.0993ZM29.4833 46.5124C29.8401 45.9855 30.175 45.4495 30.4868 44.9071L29.6199 44.4087C29.3204 44.9297 28.9984 45.4449 28.6553 45.9518L29.4833 46.5124ZM29.5803 44.8198C29.8239 45.5315 30.1027 46.2331 30.415 46.9172L31.3247 46.5019C31.0262 45.8481 30.7595 45.1771 30.5264 44.496L29.5803 44.8198ZM32.7158 50.8064C33.1779 51.4176 33.6734 51.9944 34.2007 52.5279L34.912 51.8251C34.4177 51.3248 33.9508 50.7817 33.5135 50.2033L32.7158 50.8064ZM35.0563 52.1765V52.1754H34.0563V52.1765H35.0563ZM35.0563 52.1731V52.1719H34.0563V52.1731H35.0563ZM34.1991 52.5218C34.7213 53.0549 35.2673 53.5616 35.8343 54.0416L36.4804 53.2784C35.9366 52.818 35.4134 52.3325 34.9135 51.8221L34.1991 52.5218ZM39.4745 56.6088C40.7583 57.3587 42.1028 58.0009 43.4839 58.5351L43.8446 57.6024C42.5112 57.0867 41.215 56.4673 39.9788 55.7453L39.4745 56.6088ZM47.7392 59.8185C48.4659 59.9791 49.1962 60.1118 49.9269 60.2164L50.0687 59.2265C49.3628 59.1255 48.6572 58.9973 47.955 58.8421L47.7392 59.8185ZM49.9275 60.2165C50.5644 60.3069 51.2044 60.3817 51.8464 60.44L51.9369 59.4441C51.3119 59.3873 50.6886 59.3145 50.068 59.2265L49.9275 60.2165ZM55.709 60.5868C56.9996 60.5658 58.2893 60.4726 59.5687 60.3006L59.4355 59.3095C58.1967 59.4761 56.9462 59.5665 55.6928 59.5869L55.709 60.5868ZM63.3693 59.5408C64.6146 59.2055 65.8405 58.7853 67.0376 58.2735L66.6445 57.354C65.4924 57.8465 64.3111 58.2516 63.1093 58.5752L63.3693 59.5408ZM70.4864 56.4858C71.034 56.1475 71.5725 55.7863 72.101 55.4015L71.5123 54.5931C71.0045 54.9629 70.487 55.31 69.9608 55.6351L70.4864 56.4858ZM72.2054 54.6957L70.4196 52.3347L69.622 52.938L71.4079 55.2989L72.2054 54.6957ZM66.8479 47.6128L65.0621 45.2519L64.2645 45.8551L66.0504 48.2161L66.8479 47.6128ZM64.354 45.1606C63.8192 45.5816 63.2421 45.954 62.6307 46.2799L63.1011 47.1624C63.761 46.8106 64.3881 46.4064 64.9726 45.9464L64.354 45.1606ZM58.7315 47.6684C57.3845 47.9555 55.9787 48.0888 54.574 48.0845L54.571 49.0845C56.0398 49.089 57.517 48.9497 58.9399 48.6465L58.7315 47.6684ZM50.4043 47.6707C49.7058 47.5327 49.0261 47.3621 48.3737 47.1615L48.0799 48.1174C48.7663 48.3284 49.4795 48.5073 50.2105 48.6517L50.4043 47.6707ZM48.3895 47.1667C47.8436 46.9787 47.2845 46.7476 46.7304 46.4783L46.2932 47.3776C46.8824 47.6641 47.4787 47.9107 48.064 48.1122L48.3895 47.1667ZM43.7223 44.5374C43.2586 44.1422 42.8388 43.7221 42.4789 43.283L41.7055 43.9169C42.1082 44.4082 42.5712 44.8703 43.0737 45.2985L43.7223 44.5374ZM42.0774 44.0997C42.8058 44.1212 43.5432 44.1267 44.2876 44.1143L44.271 43.1144C43.5424 43.1266 42.8204 43.1212 42.107 43.1001L42.0774 44.0997ZM48.7008 43.8261C50.1494 43.6583 51.6092 43.4141 53.0658 43.0814L52.8432 42.1065C51.4243 42.4305 50.0006 42.6688 48.5858 42.8327L48.7008 43.8261ZM57.3211 41.8392C58.6971 41.3438 60.0575 40.7566 61.3897 40.0669L60.93 39.1788C59.6388 39.8473 58.319 40.4171 56.9824 40.8983L57.3211 41.8392ZM65.1825 37.7558C65.7807 37.3308 66.3698 36.8807 66.9484 36.4044L66.3128 35.6324C65.7527 36.0935 65.1825 36.5291 64.6034 36.9405L65.1825 37.7558ZM66.9486 36.4043C67.5866 35.8784 68.199 35.3138 68.7795 34.7145L68.0613 34.0187C67.5068 34.5911 66.9219 35.1304 66.3126 35.6326L66.9486 36.4043ZM71.8138 30.7676C72.6667 29.339 73.3484 27.8041 73.8095 26.1947L72.8482 25.9193C72.4125 27.4398 71.7669 28.8954 70.9552 30.255L71.8138 30.7676ZM74.4822 21.238C74.471 20.4124 74.398 19.5777 74.258 18.7374L73.2716 18.9018C73.4032 19.6916 73.4717 20.4759 73.4822 21.2516L74.4822 21.238ZM74.2561 18.7269C74.1107 17.9567 73.9092 17.2083 73.6564 16.4848L72.7124 16.8145C72.9489 17.4916 73.1374 18.1918 73.2734 18.9124L74.2561 18.7269ZM71.5088 12.388C70.6014 11.1355 69.521 10.0158 68.3113 9.05541L67.6895 9.83859C68.8301 10.7441 69.8466 11.7981 70.699 12.9747L71.5088 12.388ZM64.3529 6.68421C63.647 6.37819 62.9196 6.11747 62.1759 5.90532L61.9016 6.86696C62.6029 7.06701 63.2891 7.31294 63.9552 7.60171L64.3529 6.68421ZM62.1623 5.90163C61.5193 5.73771 60.8767 5.60743 60.2355 5.50926L60.0841 6.49775C60.6933 6.591 61.3039 6.71479 61.9152 6.87064L62.1623 5.90163ZM56.3141 5.29719C55.0003 5.35354 53.7022 5.53504 52.4283 5.82694L52.6516 6.80168C53.8693 6.52267 55.1069 6.34988 56.3569 6.29627L56.3141 5.29719ZM48.6998 7.01385C47.5004 7.50366 46.3321 8.0864 45.2025 8.74817L45.7079 9.61101C46.7991 8.97176 47.925 8.41045 49.0779 7.93964L48.6998 7.01385ZM41.9735 10.9288C40.9468 11.7187 39.9639 12.572 39.032 13.4761L39.7283 14.1938C40.6338 13.3154 41.5878 12.4872 42.5832 11.7214L41.9735 10.9288ZM36.3931 16.3318C35.9781 16.8326 35.5778 17.3432 35.1931 17.862L35.9964 18.4576C36.3704 17.9532 36.7596 17.4568 37.1631 16.9698L36.3931 16.3318ZM20.84 23.5928C20.7987 22.9629 20.7677 22.3801 20.7508 21.8363L19.7513 21.8672C19.7686 22.4264 19.8004 23.0214 19.8421 23.6582L20.84 23.5928ZM20.9473 18.4117C21.0589 17.847 21.2198 17.3266 21.4417 16.8264L20.5276 16.4209C20.2732 16.9945 20.091 17.5866 19.9662 18.2178L20.9473 18.4117ZM21.4419 16.826C21.5857 16.501 21.7435 16.2571 21.8993 16.0832L21.1545 15.4159C20.9151 15.6832 20.7045 16.0212 20.5274 16.4214L21.4419 16.826ZM22.9891 15.9412C23.1398 16.0835 23.2959 16.3068 23.4309 16.6295L24.3534 16.2436C24.1782 15.8247 23.9511 15.4742 23.6757 15.2141L22.9891 15.9412ZM23.4309 16.6296C23.6019 17.0379 23.7276 17.5166 23.814 18.05L24.8011 17.89C24.706 17.3027 24.5627 16.7437 24.3534 16.2435L23.4309 16.6296ZM23.9484 21.127C23.9279 21.6503 23.8915 22.1761 23.846 22.6915L24.8421 22.7794C24.8887 22.2516 24.9263 21.7091 24.9476 21.1662L23.9484 21.127ZM23.8472 22.6795C23.7706 23.3597 23.6821 24.0485 23.5807 24.7428L24.5702 24.8872C24.6732 24.1818 24.7631 23.4821 24.8409 22.7914L23.8472 22.6795ZM22.8364 28.8328C22.6879 29.5071 22.5259 30.1809 22.3496 30.8517L23.3168 31.1059C23.4967 30.4215 23.6618 29.7346 23.813 29.0479L22.8364 28.8328ZM23.2479 30.6994C22.8957 30.1768 22.5779 29.6301 22.2968 29.0605L21.4 29.5031C21.7012 30.1132 22.0416 30.6988 22.4186 31.2582L23.2479 30.6994ZM21.0892 25.4746C20.9693 24.8645 20.8855 24.236 20.8398 23.5902L19.8423 23.6608C19.8908 24.347 19.98 25.0163 20.1079 25.6674L21.0892 25.4746ZM43.7792 25.7559C43.2687 26.5288 42.7742 27.3597 42.3159 28.2317L43.2011 28.6969C43.6435 27.8553 44.1209 27.053 44.6136 26.307L43.7792 25.7559ZM40.2175 33.5954C39.9773 34.545 39.8084 35.5061 39.7315 36.4622L40.7283 36.5423C40.8002 35.6489 40.9586 34.7433 41.1869 33.8406L40.2175 33.5954ZM40.2783 36.9999C40.8452 36.9448 41.4192 36.8747 41.9985 36.7883L41.851 35.7992C41.289 35.8831 40.732 35.9511 40.1815 36.0046L40.2783 36.9999ZM45.3967 36.0959C46.493 35.8102 47.5977 35.4592 48.701 35.0338L48.3413 34.1007C47.2747 34.5119 46.206 34.8515 45.1445 35.1282L45.3967 36.0959ZM51.8629 33.5967C52.3695 33.3291 52.8738 33.0437 53.3748 32.7395L52.8558 31.8847C52.3721 32.1785 51.8852 32.4541 51.3959 32.7124L51.8629 33.5967ZM53.3747 32.7395C53.8957 32.4233 54.4212 32.1004 54.9422 31.7673L54.4034 30.9248C53.8921 31.2518 53.3742 31.57 52.8559 31.8847L53.3747 32.7395ZM57.9689 29.5942C58.4531 29.1908 58.9178 28.7658 59.354 28.3141L58.6346 27.6194C58.2271 28.0415 57.7895 28.4421 57.3288 28.826L57.9689 29.5942ZM59.3596 28.3081C59.8982 27.7317 60.4403 27.0917 60.9278 26.4111L60.1148 25.8288C59.658 26.4666 59.145 27.073 58.6289 27.6254L59.3596 28.3081ZM62.7462 21.7237C62.7431 20.8541 62.5086 19.9938 61.9648 19.1881L61.1359 19.7475C61.5628 20.38 61.7438 21.0446 61.7462 21.7272L62.7462 21.7237ZM61.9649 19.1882C61.722 18.8281 61.4557 18.522 61.1635 18.2634L60.5008 19.0124C60.7245 19.2103 60.936 19.4512 61.1358 19.7474L61.9649 19.1882ZM58.9805 17.2055C58.6149 17.1242 58.232 17.0694 57.8335 17.0303L57.7359 18.0255C58.1071 18.0619 58.4481 18.1116 58.7634 18.1817L58.9805 17.2055ZM57.8087 17.0285C57.0792 16.9934 56.3489 17.0445 55.6249 17.1687L55.794 18.1543C56.4525 18.0413 57.1099 17.996 57.7607 18.0273L57.8087 17.0285ZM51.5635 18.6067C50.3219 19.2654 49.1356 20.0926 48.0428 21.0177L48.6889 21.781C49.735 20.8954 50.8623 20.1107 52.0322 19.49L51.5635 18.6067ZM45.0582 24.0459C44.5952 24.6079 44.1678 25.1798 43.7819 25.7518L44.6109 26.3111C44.9783 25.7665 45.3866 25.22 45.83 24.6817L45.0582 24.0459ZM35.5947 18.1598L34.5972 18.2303L34.7877 20.9272L36.398 18.7554L35.5947 18.1598ZM29.7301 5.99768L29.163 6.82134L29.1692 6.82559L29.1754 6.82973L29.7301 5.99768ZM22.0664 4.03042L22.1153 5.02922L22.1231 5.02884L22.1309 5.02833L22.0664 4.03042ZM11.3628 14.0128L12.3347 14.2482L12.3349 14.2474L11.3628 14.0128ZM16.9634 34.8631L17.7017 34.1887L17.7013 34.1883L16.9634 34.8631ZM20.3958 37.8848L21.3193 38.2685L21.6265 37.5291L20.9721 37.0676L20.3958 37.8848ZM8.31377 44.0787L8.58071 43.115L7.63001 42.8517L7.35378 43.7987L8.31377 44.0787ZM5 55.4396L4.04 55.1596L3.78176 56.0449L4.64336 56.3738L5 55.4396ZM30.0534 44.6579L30.9995 44.3341L30.2855 42.2477L29.1864 44.1595L30.0534 44.6579ZM34.5563 52.1765L33.845 52.8794L35.5563 54.6112V52.1765H34.5563ZM34.5563 52.1719L35.2708 51.4722L33.5563 49.7217V52.1719H34.5563ZM49.9978 59.7215L49.856 60.7114L49.8573 60.7116L49.9978 59.7215ZM71.8066 54.9973L72.3953 55.8057L73.2185 55.2062L72.6042 54.394L71.8066 54.9973ZM64.6633 45.5535L65.4608 44.9502L64.8458 44.1372L64.0448 44.7677L64.6633 45.5535ZM48.2268 47.6395L47.9013 48.585L47.917 48.5904L47.9329 48.5953L48.2268 47.6395ZM42.0922 43.5999L42.1217 42.6004L39.9269 42.5355L41.3188 44.2338L42.0922 43.5999ZM66.6306 36.0184L67.2661 36.7905L67.2666 36.7901L66.6306 36.0184ZM73.7648 18.8196L74.7512 18.6552L74.7494 18.6447L74.7474 18.6342L73.7648 18.8196ZM62.0387 6.38614L62.3131 5.4245L62.2995 5.42062L62.2858 5.41713L62.0387 6.38614ZM20.341 23.6255L19.3432 23.6909L19.3435 23.6961L20.341 23.6255ZM20.9846 16.6237L21.8987 17.0292L21.8991 17.0283L20.9846 16.6237ZM22.8332 30.9788L22.004 31.5377L23.2388 33.37L23.8004 31.233L22.8332 30.9788ZM24.344 22.7354L25.3378 22.8474L25.3391 22.8354L25.3402 22.8234L24.344 22.7354ZM23.8922 16.4365L22.9696 16.8224L22.9697 16.8226L23.8922 16.4365ZM44.1964 26.0314L43.3674 25.4721L43.362 25.4803L44.1964 26.0314ZM57.7847 17.5279L57.8823 16.5327L57.8575 16.5303L57.8327 16.5291L57.7847 17.5279ZM40.2299 36.5022L39.2331 36.4221L39.1373 37.6132L40.3267 37.4975L40.2299 36.5022ZM53.1153 32.3121L52.5964 31.4572L52.5962 31.4574L53.1153 32.3121ZM58.9943 27.9668L59.7136 28.6614L59.7194 28.6555L59.725 28.6494L58.9943 27.9668ZM61.5504 19.4678L60.7213 20.027L60.7215 20.0272L61.5504 19.4678ZM36.5923 18.0894C36.5506 17.4993 36.4864 16.8937 36.397 16.2801L34.4179 16.5687C34.5 17.1316 34.5589 17.6879 34.5972 18.2303L36.5923 18.0894ZM35.5827 12.7183C35.2094 11.553 34.7229 10.404 34.1003 9.32819L32.3693 10.33C32.9097 11.2638 33.3416 12.2782 33.6781 13.3285L35.5827 12.7183ZM31.7804 6.35864C31.3219 5.9254 30.8241 5.5252 30.2848 5.16563L29.1754 6.82973C29.617 7.12416 30.0268 7.4533 30.4068 7.81234L31.7804 6.35864ZM30.2972 5.17402C29.6814 4.75006 29.0405 4.39343 28.3811 4.0996L27.5671 5.92646C28.1165 6.17129 28.65 6.46817 29.163 6.82134L30.2972 5.17402ZM24.1601 3.0457C23.4423 2.98848 22.7207 2.98604 22.0019 3.0325L22.1309 5.02833C22.7594 4.98771 23.3846 4.99023 24.0012 5.03937L24.1601 3.0457ZM22.0175 3.03161C21.2815 3.06763 20.5705 3.1757 19.8873 3.34748L20.3749 5.28712C20.9318 5.14712 21.5122 5.05873 22.1153 5.02922L22.0175 3.03161ZM16.0224 5.16035C14.8717 5.98611 13.8712 7.003 13.0352 8.12836L14.6407 9.32105C15.3665 8.34407 16.2226 7.47841 17.1885 6.78525L16.0224 5.16035ZM11.0193 11.7822C10.763 12.4391 10.5525 13.1077 10.3907 13.7782L12.3349 14.2474C12.4752 13.6662 12.6583 13.0836 12.8825 12.5092L11.0193 11.7822ZM10.3909 13.7774C10.2359 14.4173 10.1094 15.0579 10.0105 15.6979L11.987 16.0033C12.0774 15.4188 12.193 14.8334 12.3347 14.2482L10.3909 13.7774ZM9.74401 19.6012C9.76642 20.916 9.90132 22.2166 10.1411 23.4921L12.1067 23.1226C11.8874 21.9559 11.7642 20.7675 11.7437 19.5671L9.74401 19.6012ZM11.1775 27.2592C11.6242 28.4816 12.1694 29.6674 12.8055 30.8056L14.5514 29.83C13.9664 28.7832 13.4657 27.6941 13.0561 26.5729L11.1775 27.2592ZM14.9655 34.0503C15.3654 34.5608 15.7857 35.0572 16.2254 35.538L17.7013 34.1883C17.2959 33.7449 16.9085 33.2874 16.54 32.817L14.9655 34.0503ZM16.225 35.5375C16.497 35.8353 16.7747 36.1231 17.058 36.4011L18.4591 34.9739C18.2016 34.7211 17.9491 34.4595 17.7017 34.1887L16.225 35.5375ZM18.8587 37.9856C19.174 38.2341 19.4944 38.4727 19.8195 38.702L20.9721 37.0676C20.6755 36.8584 20.3836 36.6409 20.0965 36.4147L18.8587 37.9856ZM19.4724 37.5011C19.2287 38.0874 18.9701 38.6178 18.7001 39.0974L20.4428 40.0786C20.7543 39.5254 21.0472 38.9232 21.3193 38.2685L19.4724 37.5011ZM16.5767 41.7689C15.642 42.5744 14.6495 43.0477 13.664 43.3027L14.165 45.239C15.4273 44.9124 16.7 44.3029 17.8824 43.2839L16.5767 41.7689ZM10.2916 43.4664C9.67316 43.3857 9.09488 43.2574 8.58071 43.115L8.04684 45.0424C8.63363 45.205 9.30498 45.3546 10.033 45.4496L10.2916 43.4664ZM7.35378 43.7987L6.52534 46.6389L8.44533 47.199L9.27377 44.3587L7.35378 43.7987ZM4.86845 52.3194L4.04 55.1596L5.96 55.7196L6.78844 52.8794L4.86845 52.3194ZM4.64336 56.3738C5.26497 56.6111 5.88575 56.813 6.50473 56.9809L7.02844 55.0507C6.47426 54.9003 5.91674 54.7192 5.35664 54.5053L4.64336 56.3738ZM10.3737 57.6047C11.705 57.6754 13.0129 57.5983 14.2872 57.3929L13.969 55.4184C12.8299 55.602 11.6642 55.6704 10.4797 55.6075L10.3737 57.6047ZM18.0611 56.3881C19.2785 55.9335 20.4496 55.3668 21.5646 54.7088L20.5481 52.9864C19.5279 53.5884 18.4625 54.1034 17.3615 54.5145L18.0611 56.3881ZM24.7283 52.4851C25.7249 51.6632 26.6575 50.7689 27.5165 49.8219L26.0352 48.4781C25.2389 49.356 24.3758 50.1834 23.4558 50.9421L24.7283 52.4851ZM29.8974 46.7927C30.2609 46.2558 30.6023 45.7094 30.9203 45.1563L29.1864 44.1595C28.8931 44.6697 28.5776 45.1746 28.2412 45.6716L29.8974 46.7927ZM29.1072 44.9817C29.356 45.7087 29.6409 46.4256 29.9602 47.1249L31.7796 46.2943C31.488 45.6556 31.2273 44.9999 30.9995 44.3341L29.1072 44.9817ZM32.317 51.1079C32.7914 51.7355 33.3013 52.3291 33.845 52.8794L35.2676 51.4736C34.7898 50.9901 34.3372 50.4638 33.9124 49.9018L32.317 51.1079ZM35.5563 52.1765V52.1754H33.5563V52.1765H35.5563ZM35.5563 52.1731V52.1719H33.5563V52.1731H35.5563ZM33.8419 52.8716C34.3752 53.4162 34.9327 53.9334 35.5112 54.4232L36.8035 52.8968C36.2713 52.4462 35.7595 51.9713 35.2708 51.4722L33.8419 52.8716ZM39.2223 57.0406C40.53 57.8043 41.8986 58.458 43.3036 59.0014L44.025 57.136C42.7155 56.6296 41.4433 56.0216 40.231 55.3136L39.2223 57.0406ZM47.6313 60.3067C48.3703 60.47 49.1129 60.605 49.856 60.7114L50.1395 58.7316C49.4461 58.6323 48.7529 58.5063 48.0629 58.3538L47.6313 60.3067ZM49.8573 60.7116C50.5023 60.8031 51.1506 60.8789 51.8011 60.938L51.9822 58.9462C51.3657 58.8902 50.7507 58.8183 50.1383 58.7314L49.8573 60.7116ZM55.7172 61.0867C57.0264 61.0654 58.3356 60.9709 59.6353 60.7962L59.3689 58.814C58.1504 58.9778 56.9194 59.0669 55.6846 59.087L55.7172 61.0867ZM63.4993 60.0236C64.7663 59.6824 66.0145 59.2546 67.2341 58.7332L66.4479 56.8942C65.3184 57.3771 64.1594 57.7747 62.9793 58.0924L63.4993 60.0236ZM70.7491 56.9112C71.3074 56.5663 71.8565 56.198 72.3953 55.8057L71.2179 54.1889C70.7205 54.5512 70.2136 54.8912 69.698 55.2097L70.7491 56.9112ZM72.6042 54.394L70.8183 52.0331L69.2233 53.2396L71.0091 55.6006L72.6042 54.394ZM67.2467 47.3112L65.4608 44.9502L63.8658 46.1568L65.6516 48.5177L67.2467 47.3112ZM64.0448 44.7677C63.5347 45.1693 62.9826 45.5257 62.3955 45.8387L63.3363 47.6036C64.0204 47.2389 64.6726 46.8188 65.2818 46.3393L64.0448 44.7677ZM58.6272 47.1794C57.3183 47.4584 55.9481 47.5887 54.5756 47.5845L54.5694 49.5845C56.0704 49.5891 57.5833 49.4468 59.0441 49.1355L58.6272 47.1794ZM50.5012 47.1802C49.819 47.0454 49.156 46.8789 48.5206 46.6836L47.9329 48.5953C48.6363 48.8115 49.3663 48.9946 50.1137 49.1423L50.5012 47.1802ZM48.5523 46.6939C48.026 46.5127 47.4855 46.2894 46.949 46.0286L46.0746 47.8273C46.6814 48.1223 47.2963 48.3767 47.9013 48.585L48.5523 46.6939ZM44.0466 44.1569C43.6023 43.7782 43.2041 43.379 42.8656 42.9661L41.3188 44.2338C41.7429 44.7513 42.2275 45.2343 42.7494 45.6791L44.0466 44.1569ZM42.0626 44.5995C42.7985 44.6212 43.5436 44.6267 44.2959 44.6142L44.2626 42.6145C43.542 42.6265 42.8277 42.6212 42.1217 42.6004L42.0626 44.5995ZM48.7584 44.3227C50.2239 44.153 51.7016 43.9058 53.1771 43.5689L52.7318 41.6191C51.3318 41.9388 49.9261 42.1741 48.5282 42.336L48.7584 44.3227ZM57.4904 42.3096C58.8861 41.8072 60.2669 41.2112 61.6196 40.5109L60.7001 38.7348C59.4295 39.3926 58.13 39.9538 56.813 40.4278L57.4904 42.3096ZM65.472 38.1634C66.0798 37.7316 66.6783 37.2744 67.2661 36.7905L65.995 35.2464C65.4442 35.6998 64.8834 36.1283 64.3138 36.5329L65.472 38.1634ZM67.2666 36.7901C67.919 36.2524 68.5451 35.6751 69.1387 35.0624L67.7022 33.6708C67.1607 34.2297 66.5896 34.7563 65.9946 35.2467L67.2666 36.7901ZM72.2431 31.0239C73.1166 29.5608 73.8163 27.9863 74.2902 26.3324L72.3675 25.7816C71.9446 27.2577 71.317 28.6736 70.5259 29.9986L72.2431 31.0239ZM74.9821 21.2313C74.9706 20.3807 74.8954 19.5207 74.7512 18.6552L72.7784 18.984C72.9058 19.7485 72.9721 20.5076 72.9823 21.2583L74.9821 21.2313ZM74.7474 18.6342C74.5974 17.8392 74.3893 17.0667 74.1285 16.3199L72.2403 16.9794C72.4687 17.6332 72.6508 18.3094 72.7821 19.0051L74.7474 18.6342ZM71.9137 12.0947C70.9788 10.8041 69.8664 9.65168 68.6222 8.66382L67.3786 10.2302C68.4846 11.1083 69.4693 12.1295 70.2941 13.2681L71.9137 12.0947ZM64.5518 6.22546C63.826 5.91081 63.078 5.6427 62.3131 5.4245L61.7644 7.34777C62.4445 7.54178 63.1101 7.78032 63.7563 8.06046L64.5518 6.22546ZM62.2858 5.41713C61.6269 5.24917 60.9684 5.11565 60.3111 5.01502L60.0085 6.99199C60.6016 7.08279 61.1962 7.20334 61.7917 7.35514L62.2858 5.41713ZM56.2926 4.79765C54.9469 4.85537 53.6187 5.04122 52.3166 5.33957L52.7633 7.28905C53.9528 7.01648 55.1603 6.84806 56.3783 6.79581L56.2926 4.79765ZM48.5108 6.55096C47.2881 7.05026 46.0986 7.64372 44.9497 8.31675L45.9607 10.0424C47.0326 9.41444 48.1372 8.86385 49.2669 8.40253L48.5108 6.55096ZM41.6686 10.5325C40.6262 11.3344 39.6289 12.2003 38.6838 13.1172L40.0765 14.5527C40.9687 13.6871 41.9084 12.8714 42.8881 12.1177L41.6686 10.5325ZM36.008 16.0128C35.5873 16.5205 35.1815 17.0382 34.7915 17.5642L36.398 18.7554C36.7667 18.2583 37.1503 17.7688 37.5481 17.2888L36.008 16.0128ZM21.3389 23.5601C21.2979 22.9336 21.2672 22.357 21.2506 21.8208L19.2515 21.8827C19.2691 22.4495 19.3012 23.0506 19.3432 23.6909L21.3389 23.5601ZM21.4378 18.5087C21.5428 17.9773 21.6931 17.4926 21.8987 17.0292L20.0705 16.2182C19.7998 16.8284 19.6071 17.4563 19.4757 18.1208L21.4378 18.5087ZM21.8991 17.0283C22.0263 16.7409 22.1578 16.544 22.2717 16.4169L20.7821 15.0823C20.5008 15.3962 20.2639 15.7813 20.0702 16.219L21.8991 17.0283ZM22.6459 16.3048C22.7342 16.3882 22.8547 16.5478 22.9696 16.8224L24.8147 16.0507C24.6194 15.5837 24.3567 15.1695 24.019 14.8506L22.6459 16.3048ZM22.9697 16.8226C23.1214 17.1851 23.2384 17.6235 23.3204 18.1299L25.2947 17.8101C25.1952 17.1958 25.0432 16.5965 24.8146 16.0504L22.9697 16.8226ZM23.4488 21.1075C23.4286 21.6209 23.3929 22.1384 23.3479 22.6475L25.3402 22.8234C25.3873 22.2893 25.4256 21.7385 25.4472 21.1857L23.4488 21.1075ZM23.3503 22.6235C23.2743 23.2985 23.1865 23.9819 23.086 24.6705L25.065 24.9595C25.1688 24.2484 25.2594 23.5434 25.3378 22.8474L23.3503 22.6235ZM22.348 28.7253C22.201 29.3933 22.0406 30.0606 21.8661 30.7246L23.8004 31.233C23.982 30.5418 24.1487 29.8484 24.3013 29.1554L22.348 28.7253ZM23.6625 30.42C23.3228 29.9158 23.0162 29.3885 22.7452 28.8393L20.9517 29.7243C21.2628 30.3548 21.6145 30.9598 22.004 31.5377L23.6625 30.42ZM21.5798 25.3783C21.464 24.7885 21.3828 24.1805 21.3386 23.555L19.3435 23.6961C19.3935 24.4025 19.4854 25.0922 19.6173 25.7637L21.5798 25.3783ZM43.362 25.4803C42.8426 26.2667 42.3396 27.1119 41.8733 27.9991L43.6437 28.9295C44.0781 28.1031 44.547 27.3151 45.0308 26.5826L43.362 25.4803ZM39.7327 33.4728C39.4866 34.4458 39.3126 35.4346 39.2331 36.4221L41.2267 36.5824C41.296 35.7203 41.4493 34.8424 41.6717 33.9632L39.7327 33.4728ZM40.3267 37.4975C40.9019 37.4416 41.4843 37.3705 42.0723 37.2828L41.7772 35.3047C41.2238 35.3873 40.6753 35.4542 40.1331 35.5069L40.3267 37.4975ZM45.5228 36.5797C46.6364 36.2895 47.7591 35.9328 48.8809 35.5003L48.1614 33.6342C47.1132 34.0383 46.0625 34.3722 45.0184 34.6444L45.5228 36.5797ZM52.0963 34.0388C52.6117 33.7667 53.1247 33.4763 53.6344 33.1668L52.5962 31.4574C52.1212 31.7458 51.643 32.0165 51.1624 32.2703L52.0963 34.0388ZM53.6342 33.1669C54.1565 32.8499 54.6858 32.5247 55.2116 32.1885L54.134 30.5036C53.6275 30.8275 53.1135 31.1434 52.5964 31.4572L53.6342 33.1669ZM58.289 29.9784C58.785 29.5652 59.2632 29.1279 59.7136 28.6614L58.2749 27.2721C57.8817 27.6794 57.4577 28.0678 57.0088 28.4418L58.289 29.9784ZM59.725 28.6494C60.2748 28.061 60.8315 27.4042 61.3343 26.7022L59.7083 25.5377C59.2668 26.1541 58.7684 26.7437 58.2635 27.2841L59.725 28.6494ZM63.2462 21.7219C63.2428 20.7588 62.9815 19.8007 62.3792 18.9083L60.7215 20.0272C61.0899 20.5731 61.2441 21.1399 61.2462 21.729L63.2462 21.7219ZM62.3794 18.9086C62.1149 18.5165 61.8213 18.1779 61.4948 17.889L60.1695 19.3868C60.3589 19.5544 60.5431 19.7627 60.7213 20.027L62.3794 18.9086ZM59.0891 16.7174C58.6983 16.6305 58.2944 16.5731 57.8823 16.5327L57.6871 18.5231C58.0447 18.5582 58.3647 18.6052 58.6549 18.6698L59.0891 16.7174ZM57.8327 16.5291C57.0639 16.4921 56.2971 16.546 55.5403 16.6759L55.8786 18.6471C56.5043 18.5397 57.1252 18.4974 57.7367 18.5268L57.8327 16.5291ZM51.3292 18.165C50.0516 18.8427 48.8359 19.6911 47.7197 20.6361L49.012 22.1626C50.0346 21.2968 51.1326 20.5333 52.2665 19.9317L51.3292 18.165ZM44.6723 23.728C44.1996 24.3018 43.7626 24.8865 43.3674 25.4721L45.0254 26.5908C45.3836 26.0598 45.7822 25.5261 46.2159 24.9997L44.6723 23.728Z" fill="#BDB8BA" mask="url(#path-1-outside-1_1373_44640)"/>
</g>
</g>
</g>
</svg>
