<svg width="28" height="28" viewBox="0 0 28 28" fill="none" xmlns="http://www.w3.org/2000/svg">
<rect width="28" height="28" rx="14" fill="white" fill-opacity="0.7"/>
<path d="M7.191 19.2801C6.96319 19.5079 6.96319 19.8772 7.191 20.105C7.4188 20.3328 7.78815 20.3328 8.01595 20.105L7.191 19.2801ZM11.1853 16.1107L11.5978 15.6982C11.4884 15.5888 11.3401 15.5273 11.1853 15.5273C11.0306 15.5273 10.8823 15.5888 10.7729 15.6982L11.1853 16.1107ZM12.9763 17.9016L12.5638 18.3141C12.6732 18.4235 12.8216 18.4849 12.9763 18.4849C13.131 18.4849 13.2794 18.4235 13.3888 18.3141L12.9763 17.9016ZM17.0059 13.872L17.4184 13.4595C17.309 13.3501 17.1606 13.2887 17.0059 13.2887C16.8512 13.2887 16.7028 13.3501 16.5934 13.4595L17.0059 13.872ZM20.1753 17.8664C20.4031 18.0942 20.7724 18.0942 21.0002 17.8664C21.228 17.6386 21.228 17.2692 21.0002 17.0414L20.1753 17.8664ZM8.01595 20.105L11.5978 16.5232L10.7729 15.6982L7.191 19.2801L8.01595 20.105ZM10.7729 16.5232L12.5638 18.3141L13.3888 17.4891L11.5978 15.6982L10.7729 16.5232ZM13.3888 18.3141L17.4184 14.2845L16.5934 13.4595L12.5638 17.4891L13.3888 18.3141ZM16.5934 14.2845L20.1753 17.8664L21.0002 17.0414L17.4184 13.4595L16.5934 14.2845ZM9.39441 7.2916H18.3491V6.12493H9.39441V7.2916ZM20.4522 9.39467V18.3494H21.6188V9.39467H20.4522ZM18.3491 20.4524H9.39441V21.6191H18.3491V20.4524ZM7.29134 18.3494V9.39467H6.12467V18.3494H7.29134ZM9.39441 20.4524C8.23292 20.4524 7.29134 19.5108 7.29134 18.3494H6.12467C6.12467 20.1552 7.58859 21.6191 9.39441 21.6191V20.4524ZM20.4522 18.3494C20.4522 19.5108 19.5106 20.4524 18.3491 20.4524V21.6191C20.1549 21.6191 21.6188 20.1552 21.6188 18.3494H20.4522ZM18.3491 7.2916C19.5106 7.2916 20.4522 8.23318 20.4522 9.39467H21.6188C21.6188 7.58885 20.1549 6.12493 18.3491 6.12493V7.2916ZM9.39441 6.12493C7.58859 6.12493 6.12467 7.58885 6.12467 9.39467H7.29134C7.29134 8.23318 8.23292 7.2916 9.39441 7.2916V6.12493ZM11.4975 10.7379C11.4975 11.1575 11.1573 11.4977 10.7376 11.4977V12.6644C11.8016 12.6644 12.6641 11.8019 12.6641 10.7379H11.4975ZM10.7376 11.4977C10.3179 11.4977 9.97774 11.1575 9.97774 10.7379H8.81108C8.81108 11.8019 9.67362 12.6644 10.7376 12.6644V11.4977ZM9.97774 10.7379C9.97774 10.3182 10.3179 9.978 10.7376 9.978V8.81134C9.67362 8.81134 8.81108 9.67388 8.81108 10.7379H9.97774ZM10.7376 9.978C11.1573 9.978 11.4975 10.3182 11.4975 10.7379H12.6641C12.6641 9.67388 11.8016 8.81134 10.7376 8.81134V9.978Z" fill="#4F4D4E"/>
</svg>
