<?xml version="1.0" encoding="UTF-8"?>
<svg id="Layer_1" data-name="Layer 1" xmlns="http://www.w3.org/2000/svg" viewBox="0 0 375 40">
  <defs>
    <style>
      .cls-1 {
        fill: none;
        stroke: #ff6aa3;
        stroke-linecap: round;
        stroke-linejoin: round;
        stroke-width: 1.5px;
      }
    </style>
  </defs>
  <path class="cls-1" d="m51.9,16.1v-5.3c0-1.3,1.1-2.4,2.4-2.4h14.4c1.3,0,2.4,1.1,2.4,2.4v5.3m-19.2,0h19.2m-19.2,0v5.5c0,1.3,1.1,2.4,2.4,2.4h14.4c1.3,0,2.4-1.1,2.4-2.4v-5.5m-9.4,7.9v-15.6m-1.2-.5c.2,0,.3-.1.4-.3s.1-.3,0-.5c-.3-.6-1.4-2.5-2.2-2.9-.9-.5-2.1-.2-2.6.7-.5.9-.2,2.1.7,2.6.8.4,3,.4,3.7.4Zm1.6-.7c-.1.2-.1.3,0,.5s.3.2.4.3c.7,0,2.9,0,3.6-.4.9-.5,1.2-1.7.7-2.6s-1.7-1.2-2.6-.7c-.6.4-1.7,2.3-2.1,2.9Z"/>
  <path class="cls-1" d="m135.9,16.1v-5.3c0-1.3,1.1-2.4,2.4-2.4h14.4c1.3,0,2.4,1.1,2.4,2.4v5.3m-19.2,0h19.2m-19.2,0v5.5c0,1.3,1.1,2.4,2.4,2.4h14.4c1.3,0,2.4-1.1,2.4-2.4v-5.5m-9.4,7.9v-15.6m-1.2-.5c.2,0,.3-.1.4-.3.1-.2.1-.3,0-.5-.3-.6-1.4-2.5-2.2-2.9-.9-.5-2.1-.2-2.6.7-.5.9-.2,2.1.7,2.6.8.4,3,.4,3.7.4Zm1.6-.7c-.1.2-.1.3,0,.5s.3.2.4.3c.7,0,2.9,0,3.6-.4.9-.5,1.2-1.7.7-2.6s-1.7-1.2-2.6-.7c-.6.4-1.7,2.3-2.1,2.9Z"/>
  <path class="cls-1" d="m219.9,16.1v-5.3c0-1.3,1.1-2.4,2.4-2.4h14.4c1.3,0,2.4,1.1,2.4,2.4v5.3m-19.2,0h19.2m-19.2,0v5.5c0,1.3,1.1,2.4,2.4,2.4h14.4c1.3,0,2.4-1.1,2.4-2.4v-5.5m-9.4,7.9v-15.6m-1.2-.5c.2,0,.3-.1.4-.3.1-.2.1-.3,0-.5-.3-.6-1.4-2.5-2.2-2.9-.9-.5-2.1-.2-2.6.7-.5.9-.2,2.1.7,2.6.8.4,3,.4,3.7.4Zm1.6-.7c-.1.2-.1.3,0,.5s.3.2.4.3c.7,0,2.9,0,3.6-.4.9-.5,1.2-1.7.7-2.6s-1.7-1.2-2.6-.7c-.6.4-1.7,2.3-2.1,2.9Z"/>
  <path class="cls-1" d="m303.9,16.1v-5.3c0-1.3,1.1-2.4,2.4-2.4h14.4c1.3,0,2.4,1.1,2.4,2.4v5.3m-19.2,0h19.2m-19.2,0v5.5c0,1.3,1.1,2.4,2.4,2.4h14.4c1.3,0,2.4-1.1,2.4-2.4v-5.5m-9.4,7.9v-15.6m-1.2-.5c.2,0,.3-.1.4-.3.1-.2.1-.3,0-.5-.3-.6-1.4-2.5-2.2-2.9-.9-.5-2.1-.2-2.6.7-.5.9-.2,2.1.7,2.6.8.4,3,.4,3.7.4Zm1.6-.7c-.1.2-.1.3,0,.5s.3.2.4.3c.7,0,2.9,0,3.6-.4.9-.5,1.2-1.7.7-2.6s-1.7-1.2-2.6-.7c-.6.4-1.7,2.3-2.1,2.9Z"/>
</svg>