<svg width="242" height="242" viewBox="0 0 242 242" fill="none" xmlns="http://www.w3.org/2000/svg">
<g filter="url(#filter0_b_3247_15133)">
<rect x="1" y="1" width="240" height="240" rx="12" fill="#F8F8F8"/>
<rect x="0.5" y="0.5" width="241" height="241" rx="12.5" stroke="#EBE9EA"/>
</g>
<path d="M103.026 135.059C102.441 135.645 102.441 136.594 103.026 137.18C103.612 137.766 104.562 137.766 105.148 137.18L103.026 135.059ZM113.217 126.989L114.278 125.928C113.692 125.343 112.743 125.343 112.157 125.928L113.217 126.989ZM117.783 131.554L116.722 132.615C117.308 133.201 118.258 133.201 118.843 132.615L117.783 131.554ZM128.054 121.283L129.115 120.222C128.529 119.636 127.58 119.636 126.994 120.222L128.054 121.283ZM136.124 131.474C136.71 132.059 137.66 132.059 138.245 131.474C138.831 130.888 138.831 129.938 138.245 129.352L136.124 131.474ZM105.148 137.18L114.278 128.05L112.157 125.928L103.026 135.059L105.148 137.18ZM112.157 128.05L116.722 132.615L118.843 130.494L114.278 125.928L112.157 128.05ZM118.843 132.615L129.115 122.343L126.994 120.222L116.722 130.494L118.843 132.615ZM126.994 122.343L136.124 131.474L138.245 129.352L129.115 120.222L126.994 122.343ZM108.652 104.522H131.478V101.522H108.652V104.522ZM136.826 109.87V132.696H139.826V109.87H136.826ZM131.478 138.043H108.652V141.043H131.478V138.043ZM103.304 132.696V109.87H100.304V132.696H103.304ZM108.652 138.043C105.699 138.043 103.304 135.649 103.304 132.696H100.304C100.304 137.306 104.042 141.043 108.652 141.043V138.043ZM136.826 132.696C136.826 135.649 134.432 138.043 131.478 138.043V141.043C136.089 141.043 139.826 137.306 139.826 132.696H136.826ZM131.478 104.522C134.432 104.522 136.826 106.916 136.826 109.87H139.826C139.826 105.259 136.089 101.522 131.478 101.522V104.522ZM108.652 101.522C104.042 101.522 100.304 105.259 100.304 109.87H103.304C103.304 106.916 105.699 104.522 108.652 104.522V101.522ZM114 113.293C114 114.356 113.139 115.217 112.076 115.217V118.217C114.796 118.217 117 116.013 117 113.293H114ZM112.076 115.217C111.014 115.217 110.152 114.356 110.152 113.293H107.152C107.152 116.013 109.357 118.217 112.076 118.217V115.217ZM110.152 113.293C110.152 112.231 111.014 111.37 112.076 111.37V108.37C109.357 108.37 107.152 110.574 107.152 113.293H110.152ZM112.076 111.37C113.139 111.37 114 112.231 114 113.293H117C117 110.574 114.796 108.37 112.076 108.37V111.37Z" fill="#CAC6C8"/>
<circle cx="138.652" cy="103.348" r="9.13044" fill="#CAC6C8"/>
<rect x="137.739" y="98.7828" width="1.82609" height="9.13044" rx="0.913043" fill="white"/>
<rect x="134.087" y="104.261" width="1.82609" height="9.13044" rx="0.913044" transform="rotate(-90 134.087 104.261)" fill="white"/>
<defs>
<filter id="filter0_b_3247_15133" x="-20" y="-20" width="282" height="282" filterUnits="userSpaceOnUse" color-interpolation-filters="sRGB">
<feFlood flood-opacity="0" result="BackgroundImageFix"/>
<feGaussianBlur in="BackgroundImageFix" stdDeviation="10"/>
<feComposite in2="SourceAlpha" operator="in" result="effect1_backgroundBlur_3247_15133"/>
<feBlend mode="normal" in="SourceGraphic" in2="effect1_backgroundBlur_3247_15133" result="shape"/>
</filter>
</defs>
</svg>
